<svg fill="#000000" height="800px" width="800px" version="1.1" id="Layer_1" xmlns="http://www.w3.org/2000/svg" xmlns:xlink="http://www.w3.org/1999/xlink"
     viewBox="0 0 299.444 299.444" xml:space="preserve">
<g>
	<g>
		<g>
			<path d="M237.86,59.584c-5.762-11.323-13.199-22.512-28.743-28.006c-2.613-0.938-5.494,0.469-6.432,3.082
				c-0.938,2.613,0.469,5.494,3.082,6.432c11.524,4.02,17.554,12.127,23.115,23.048c0.871,1.742,2.68,2.747,4.489,2.747
				c0.804,0,1.541-0.134,2.278-0.536C238.128,65.078,239.133,62.063,237.86,59.584z"/>
            <path d="M224.46,13.622c-11.993-4.489-42.009-14.673-64.253-13.534c-17.822,0.067-39.932,7.906-51.59,12.596
				c-20.569,7.169-36.984,32.361-35.912,55.074c0,0.067,0,0.067,0,0.134l1.474,19.296l-6.968-0.134h-0.067
				c-17.085,0-30.954,13.735-30.954,30.552v3.752c0,7.973,3.35,15.812,9.179,21.574l25.393,24.991v0.737
				c0,23.115,14.74,42.88,35.51,51.121v62.377c0,9.38,8.04,17.286,17.487,17.286h90.316c9.514,0,17.487-7.906,17.487-17.286v-63.382
				c0-0.134,0-0.335,0-0.469c5.561-2.68,10.72-6.231,15.209-10.72c10.653-10.452,16.482-24.321,16.482-38.927V69.366
				C263.387,45.715,245.967,20.724,224.46,13.622z M123.893,289.528c-3.953-0.067-7.437-3.484-7.437-7.303v-58.357h11.323h41.875
				l-16.616,17.018c-1.943,1.943-1.943,5.092,0,7.035l21.44,21.976l-19.966,19.631H123.893z M221.646,282.225
				c0,3.886-3.484,7.236-7.437,7.236H168.85l16.214-15.946c1.943-1.943,2.01-5.092,0.067-7.102l-21.507-22.043l20.033-20.502h23.852
				h14.137V282.225z M253.337,168.727c0,24.455-21.038,45.091-45.895,45.091h-79.73c-25.862,0-46.833-20.234-46.833-45.091v-2.814
				c0-1.34-0.536-2.613-1.474-3.551l-26.867-26.465c-3.886-3.819-6.164-9.179-6.164-14.405v-3.752
				c0-11.457,9.179-20.502,20.904-20.502l60.501,0.938h0.067c6.097,0,11.993,2.948,16.013,5.494
				c2.814,3.015,4.891,8.107,4.891,12.194v18.894c0,5.092-2.211,10.385-5.963,14.204c-4.154,3.216-9.782,5.36-13.936,5.36h-6.7
				c-5.36,0-10.854-2.278-14.74-6.097l-6.7-6.633c-2.01-1.943-5.159-1.943-7.102,0.067c-1.943,2.01-1.943,5.159,0.067,7.102
				l6.7,6.633c5.829,5.695,13.735,8.978,21.775,8.978h6.7c6.566,0,14.338-2.948,20.368-7.705c0.134-0.134,0.268-0.268,0.402-0.335
				c5.561-5.427,8.844-12.797,9.179-20.301h50.719c7.973,0,15.812-3.216,21.574-8.844l5.628-4.623
				c2.144-1.742,2.479-4.958,0.67-7.102c-1.742-2.144-4.958-2.479-7.102-0.67l-5.762,4.757c-0.134,0.067-0.201,0.201-0.335,0.335
				c-3.886,3.819-9.38,6.097-14.74,6.097h-50.719v-10.117c0-6.901-3.283-14.807-8.241-19.631c-0.268-0.201-0.469-0.469-0.737-0.603
				c-7.437-4.891-15.008-7.437-21.909-7.437l-43.416-0.67l-1.541-20.167c-0.871-18.358,12.797-39.396,29.279-45.024
				c0.067,0,0.201-0.067,0.268-0.067c18.693-7.571,36.18-11.926,48.039-11.926c0.067,0,0.201,0,0.268,0
				c14.137-0.804,36.716,4.087,60.367,12.931c0.067,0,0.134,0.067,0.201,0.067c17.42,5.695,32.093,26.934,32.093,46.297v99.093
				H253.337z"/>
            <circle cx="240.273" cy="78.078" r="5.025"/>
		</g>
	</g>
</g>
</svg>