<svg width="86" height="90" viewBox="0 0 86 90" fill="none" xmlns="http://www.w3.org/2000/svg">
    <path d="M65.1835 28.7783C65.228 28.3202 65.2725 27.8205 65.2725 27.3207C65.2725 20.5322 59.3993 15.0764 52.1913 15.0764C50.9455 15.0764 49.7887 15.2429 48.6318 15.5345C47.3415 6.78852 39.3326 0 29.5884 0C18.9544 0 10.3671 8.03795 10.3671 17.9917V18.1166C4.53838 18.7413 0 23.4058 0 29.0282C0 35.1087 5.25028 40.0231 11.7464 40.0231H64.4716V39.9815C64.6496 39.9815 64.8276 40.0231 64.9611 40.0231C68.2536 40.0231 70.9678 37.5243 70.9678 34.4007C70.9678 31.3605 68.3871 28.9033 65.1835 28.7783Z" fill="#292040"/>
    <path d="M55.4392 63.5956V67.3022C55.4392 71.8417 51.0788 74.882 46.229 74.882H22.0243C17.1745 74.882 13.2145 71.8417 13.2145 67.3022V53.2254L5.87305 50.0602L17.6194 26.3212C17.6194 26.3212 19.3992 22.323 19.7106 21.5317C24.3825 9.78714 36.4404 1.41602 50.6339 1.41602C68.8764 1.41602 83.6484 15.2429 83.6484 32.3184C83.6484 42.6053 77.8197 51.7261 69.5438 57.3485V90M31.4125 90V75.9232" stroke="url(#paint0_linear_334_66)"/>
    <path d="M54.2821 32.1102H43.2476L47.3855 20.4905L31.3232 39.0653H42.3577L38.2198 50.6849L54.2821 32.1102Z" fill="#0561FC"/>
    <path d="M54.2821 32.1102H43.2476L47.3855 20.4905L31.3232 39.0653H42.3577L38.2198 50.6849L54.2821 32.1102Z" fill="url(#paint1_linear_334_66)"/>
    <defs>
        <linearGradient id="paint0_linear_334_66" x1="44.7607" y1="1.41602" x2="44.7607" y2="90" gradientUnits="userSpaceOnUse">
            <stop stop-color="#0561FC"/>
            <stop offset="1" stop-color="#BB84E8"/>
        </linearGradient>
        <linearGradient id="paint1_linear_334_66" x1="42.8027" y1="20.4905" x2="42.8027" y2="50.6849" gradientUnits="userSpaceOnUse">
            <stop stop-color="#0561FC"/>
            <stop offset="1" stop-color="#BB84E8"/>
        </linearGradient>
    </defs>
</svg>
