<svg xmlns="http://www.w3.org/2000/svg" width="169" height="169" viewBox="0 0 169 169" fill="none">
    <mask id="path-1-inside-1_406_1132" fill="white">
        <path d="M169 84.5C169 62.2258 160.205 40.8524 144.529 25.0288C128.852 9.20528 107.562 0.211477 85.2883 0.00367722C63.015 -0.204122 41.5606 8.39089 25.5914 23.9192C9.62232 39.4475 0.430289 60.6531 0.0147086 82.9234C-0.400872 105.194 7.99361 126.728 23.3723 142.841C38.751 158.954 59.8698 168.344 82.1353 168.967C104.401 169.59 126.012 161.397 142.268 146.169C158.524 130.942 168.11 109.911 168.941 87.6526L167.794 87.6098C166.975 109.566 157.519 130.311 141.484 145.332C125.448 160.353 104.131 168.435 82.1675 167.82C60.2043 167.205 39.3722 157.943 24.2024 142.049C9.0326 126.154 0.752117 104.913 1.16205 82.9449C1.57199 60.9769 10.6392 40.0594 26.3914 24.7419C42.1437 9.42448 63.3068 0.946195 85.2776 1.15117C107.248 1.35615 128.25 10.2278 143.713 25.8365C159.177 41.4452 167.852 62.5283 167.852 84.5H169Z" class="svg-elem-8"></path>
    </mask>
    <path d="M169 84.5C169 62.2258 160.205 40.8524 144.529 25.0288C128.852 9.20528 107.562 0.211477 85.2883 0.00367722C63.015 -0.204122 41.5606 8.39089 25.5914 23.9192C9.62232 39.4475 0.430289 60.6531 0.0147086 82.9234C-0.400872 105.194 7.99361 126.728 23.3723 142.841C38.751 158.954 59.8698 168.344 82.1353 168.967C104.401 169.59 126.012 161.397 142.268 146.169C158.524 130.942 168.11 109.911 168.941 87.6526L167.794 87.6098C166.975 109.566 157.519 130.311 141.484 145.332C125.448 160.353 104.131 168.435 82.1675 167.82C60.2043 167.205 39.3722 157.943 24.2024 142.049C9.0326 126.154 0.752117 104.913 1.16205 82.9449C1.57199 60.9769 10.6392 40.0594 26.3914 24.7419C42.1437 9.42448 63.3068 0.946195 85.2776 1.15117C107.248 1.35615 128.25 10.2278 143.713 25.8365C159.177 41.4452 167.852 62.5283 167.852 84.5H169Z" stroke="url(#paint0_linear_406_1132)" stroke-width="2" mask="url(#path-1-inside-1_406_1132)" class="svg-elem-9"></path>
    <g clip-path="url(#clip0_406_1132)">
        <path d="M106.233 67.7783C106.275 67.3202 106.317 66.8205 106.317 66.3207C106.317 59.5322 100.799 54.0764 94.0282 54.0764C92.8579 54.0764 91.7712 54.2429 90.6844 54.5345C89.4723 45.7885 81.9488 39 72.7952 39C62.8056 39 54.7388 47.0379 54.7388 56.9917V57.1166C49.2633 57.7413 45 62.4058 45 68.0282C45 74.1087 49.9321 79.0231 56.0345 79.0231H105.564V78.9815C105.731 78.9815 105.899 79.0231 106.024 79.0231C109.117 79.0231 111.667 76.5243 111.667 73.4007C111.667 70.3605 109.242 67.9033 106.233 67.7783Z" fill="#292040" class="svg-elem-10"></path>
        <path d="M97.0798 102.596V106.302C97.0798 110.842 92.9836 113.882 88.4277 113.882H65.69C61.1341 113.882 57.4141 110.842 57.4141 106.302V92.2254L50.5176 89.0602L61.5521 65.3212C61.5521 65.3212 63.224 61.323 63.5165 60.5317C67.9052 48.7871 79.2323 40.416 92.5656 40.416C109.703 40.416 123.579 54.2429 123.579 71.3184C123.579 81.6053 118.104 90.7261 110.329 96.3485V129M74.5092 129V114.923" stroke="url(#paint1_linear_406_1132)" class="svg-elem-11"></path>
        <path d="M95.9932 71.1102H85.6275L89.5146 59.4905L74.4258 78.0653H84.7915L80.9044 89.6849L95.9932 71.1102Z" fill="#0561FC" class="svg-elem-12"></path>
        <path d="M95.9932 71.1102H85.6275L89.5146 59.4905L74.4258 78.0653H84.7915L80.9044 89.6849L95.9932 71.1102Z" fill="url(#paint2_linear_406_1132)" class="svg-elem-13"></path>
    </g>
    <defs>
        <linearGradient id="paint0_linear_406_1132" x1="84.5" y1="0" x2="84.5" y2="169" gradientUnits="userSpaceOnUse">
            <stop stop-color="#0561FC"></stop>
            <stop offset="1" stop-color="#BB84E8"></stop>
        </linearGradient>
        <linearGradient id="paint1_linear_406_1132" x1="87.0484" y1="40.416" x2="87.0484" y2="129" gradientUnits="userSpaceOnUse">
            <stop stop-color="#0561FC"></stop>
            <stop offset="1" stop-color="#BB84E8"></stop>
        </linearGradient>
        <linearGradient id="paint2_linear_406_1132" x1="85.2095" y1="59.4905" x2="85.2095" y2="89.6849" gradientUnits="userSpaceOnUse">
            <stop stop-color="#0561FC"></stop>
            <stop offset="1" stop-color="#BB84E8"></stop>
        </linearGradient>
        <clipPath id="clip0_406_1132">
            <rect width="80" height="90" fill="white" transform="translate(45 39)" class="svg-elem-14"></rect>
        </clipPath>
    </defs>
</svg>
