<svg width="169" height="169" viewBox="0 0 169 169" fill="none" xmlns="http://www.w3.org/2000/svg">
    <mask id="path-1-inside-1_406_1154" fill="white">
        <path d="M169 84.5C169 62.2258 160.205 40.8524 144.529 25.0288C128.852 9.20528 107.562 0.211477 85.2883 0.00367722C63.015 -0.204122 41.5606 8.39089 25.5914 23.9192C9.62232 39.4475 0.430289 60.6531 0.0147086 82.9234C-0.400872 105.194 7.99361 126.728 23.3723 142.841C38.751 158.954 59.8698 168.344 82.1353 168.967C104.401 169.59 126.012 161.397 142.268 146.169C158.524 130.942 168.11 109.911 168.941 87.6526L167.794 87.6098C166.975 109.566 157.519 130.311 141.484 145.332C125.448 160.353 104.131 168.435 82.1675 167.82C60.2043 167.205 39.3722 157.943 24.2024 142.049C9.0326 126.154 0.752117 104.913 1.16205 82.9449C1.57199 60.9769 10.6392 40.0594 26.3914 24.7419C42.1437 9.42448 63.3068 0.946195 85.2776 1.15117C107.248 1.35615 128.25 10.2278 143.713 25.8365C159.177 41.4452 167.852 62.5283 167.852 84.5H169Z" class="svg-elem-28"></path>
    </mask>
    <path d="M169 84.5C169 62.2258 160.205 40.8524 144.529 25.0288C128.852 9.20528 107.562 0.211477 85.2883 0.00367722C63.015 -0.204122 41.5606 8.39089 25.5914 23.9192C9.62232 39.4475 0.430289 60.6531 0.0147086 82.9234C-0.400872 105.194 7.99361 126.728 23.3723 142.841C38.751 158.954 59.8698 168.344 82.1353 168.967C104.401 169.59 126.012 161.397 142.268 146.169C158.524 130.942 168.11 109.911 168.941 87.6526L167.794 87.6098C166.975 109.566 157.519 130.311 141.484 145.332C125.448 160.353 104.131 168.435 82.1675 167.82C60.2043 167.205 39.3722 157.943 24.2024 142.049C9.0326 126.154 0.752117 104.913 1.16205 82.9449C1.57199 60.9769 10.6392 40.0594 26.3914 24.7419C42.1437 9.42448 63.3068 0.946195 85.2776 1.15117C107.248 1.35615 128.25 10.2278 143.713 25.8365C159.177 41.4452 167.852 62.5283 167.852 84.5H169Z" stroke="url(#paint0_linear_406_1154)" stroke-width="2" mask="url(#path-1-inside-1_406_1154)" class="svg-elem-29"></path>
    <g clip-path="url(#clip0_406_1154)">
        <path d="M52.5 129.5V57.573L69.617 40.5H117.5V129.5H52.5Z" stroke="url(#paint1_linear_406_1154)" class="svg-elem-30"></path>
        <path d="M69.4103 57.3655H52L69.4103 40V57.3655Z" fill="#141625" class="svg-elem-31"></path>
        <path d="M59.9512 118.52H108.373M61.416 114.262V111.382M67.1078 114.262V111.382M72.8415 114.262V111.382M78.5751 114.262V111.382M84.3088 114.262V111.382M90.0006 114.262V111.382M95.7343 114.262V111.382M101.468 114.262V111.382M107.202 114.262V111.382M72.8415 47.1799H75.6874M72.8415 52.8989H75.6874M72.8415 58.576H75.6874M78.5751 47.1799H97.1573M78.5751 52.8989H91.4654M78.5751 58.576H95.7343M61.416 108.544V93.2653M67.1078 108.544V87.1289M72.8415 108.544V85.7096M78.5751 108.544V78.5714M84.3088 108.544V85.7096M90.0006 108.544V74.2718M95.7343 108.544V77.1521M101.468 108.544V70.0139M107.202 108.544V64.295" stroke="url(#paint2_linear_406_1154)" class="svg-elem-32"></path>
    </g>
    <defs>
        <linearGradient id="paint0_linear_406_1154" x1="84.5" y1="0" x2="84.5" y2="169" gradientUnits="userSpaceOnUse">
            <stop stop-color="#4be1ec"></stop>
            <stop offset="1" stop-color="#BB84E8"></stop>
        </linearGradient>
        <linearGradient id="paint1_linear_406_1154" x1="85" y1="40" x2="85" y2="130" gradientUnits="userSpaceOnUse">
            <stop stop-color="#4be1ec"></stop>
            <stop offset="1" stop-color="#BB84E8"></stop>
        </linearGradient>
        <linearGradient id="paint2_linear_406_1154" x1="84.1623" y1="47.1799" x2="84.1623" y2="118.52" gradientUnits="userSpaceOnUse">
            <stop stop-color="#4be1ec"></stop>
            <stop offset="1" stop-color="#BB84E8"></stop>
        </linearGradient>
        <clipPath id="clip0_406_1154">
            <rect width="66" height="90" fill="white" transform="translate(52 40)" class="svg-elem-33"></rect>
        </clipPath>
    </defs>
</svg>
