<svg xmlns="http://www.w3.org/2000/svg" width="115" height="89" viewBox="0 0 115 89" fill="none">
    <path d="M114.909 68.0587C114.909 70.5098 113.096 72.4814 110.802 72.4814H102.854V89L83.3317 72.4814H32.3914C30.0978 72.4814 28.2842 70.5098 28.2842 68.0587V18.0764C28.2842 15.6253 30.0978 13.6537 32.3914 13.6537H110.802C113.096 13.6537 114.909 15.6253 114.909 18.0764V68.0587Z" fill="#292040"/>
    <path d="M0.920528 55.3233C0.920528 57.7744 2.73411 59.746 5.02775 59.746H12.9755V76.2646L32.4982 59.746H83.3851C85.6787 59.746 87.4923 57.7744 87.4923 55.3233V5.28773C87.4923 2.83657 85.6787 0.86499 83.3851 0.86499H4.97441C2.68077 0.86499 0.867188 2.83657 0.867188 5.28773V55.3233H0.920528Z" stroke="url(#paint0_linear_259_1076)"/>
    <path d="M17.5098 20.6874H65.9964M17.5098 30.3854H65.9964M17.5098 40.0835H65.9964" stroke="#0561FC"/>
    <defs>
        <linearGradient id="paint0_linear_259_1076" x1="44.1797" y1="0.86499" x2="44.1797" y2="76.2646" gradientUnits="userSpaceOnUse">
            <stop stop-color="#0561FC"/>
            <stop offset="1" stop-color="#BB84E8"/>
        </linearGradient>
    </defs>
</svg>