<svg width="169" height="169" viewBox="0 0 169 169" fill="none" xmlns="http://www.w3.org/2000/svg">
    <g clip-path="url(#clip0_406_1147)">
        <mask id="path-1-inside-1_406_1147" fill="white">
            <path d="M169 84.5C169 62.2258 160.205 40.8524 144.529 25.0288C128.852 9.20528 107.562 0.211477 85.2883 0.00367722C63.015 -0.204122 41.5606 8.39089 25.5914 23.9192C9.62232 39.4475 0.430289 60.6531 0.0147086 82.9234C-0.400872 105.194 7.99361 126.728 23.3723 142.841C38.751 158.954 59.8698 168.344 82.1353 168.967C104.401 169.59 126.012 161.397 142.268 146.169C158.524 130.942 168.11 109.911 168.941 87.6526L167.794 87.6098C166.975 109.566 157.519 130.311 141.484 145.332C125.448 160.353 104.131 168.435 82.1675 167.82C60.2043 167.205 39.3722 157.943 24.2024 142.049C9.0326 126.154 0.752117 104.913 1.16205 82.9449C1.57199 60.9769 10.6392 40.0594 26.3914 24.7419C42.1437 9.42448 63.3068 0.946195 85.2776 1.15117C107.248 1.35615 128.25 10.2278 143.713 25.8365C159.177 41.4452 167.852 62.5283 167.852 84.5H169Z" class="svg-elem-21"></path>
        </mask>
        <path d="M169 84.5C169 62.2258 160.205 40.8524 144.529 25.0288C128.852 9.20528 107.562 0.211477 85.2883 0.00367722C63.015 -0.204122 41.5606 8.39089 25.5914 23.9192C9.62232 39.4475 0.430289 60.6531 0.0147086 82.9234C-0.400872 105.194 7.99361 126.728 23.3723 142.841C38.751 158.954 59.8698 168.344 82.1353 168.967C104.401 169.59 126.012 161.397 142.268 146.169C158.524 130.942 168.11 109.911 168.941 87.6526L167.794 87.6098C166.975 109.566 157.519 130.311 141.484 145.332C125.448 160.353 104.131 168.435 82.1675 167.82C60.2043 167.205 39.3722 157.943 24.2024 142.049C9.0326 126.154 0.752117 104.913 1.16205 82.9449C1.57199 60.9769 10.6392 40.0594 26.3914 24.7419C42.1437 9.42448 63.3068 0.946195 85.2776 1.15117C107.248 1.35615 128.25 10.2278 143.713 25.8365C159.177 41.4452 167.852 62.5283 167.852 84.5H169Z" stroke="url(#paint0_linear_406_1147)" stroke-width="2" mask="url(#path-1-inside-1_406_1147)" class="svg-elem-22"></path>
        <g clip-path="url(#clip1_406_1147)">
            <path d="M142.908 109.059C142.908 111.51 141.095 113.481 138.801 113.481H130.853V130L111.331 113.481H60.3904C58.0968 113.481 56.2832 111.51 56.2832 109.059V59.0764C56.2832 56.6253 58.0968 54.6537 60.3904 54.6537H138.801C141.095 54.6537 142.908 56.6253 142.908 59.0764V109.059Z" fill="#292040" class="svg-elem-23"></path>
            <path d="M28.9205 96.3233C28.9205 98.7744 30.7341 100.746 33.0278 100.746H40.9755V117.265L60.4982 100.746H111.385C113.679 100.746 115.492 98.7744 115.492 96.3233V46.2877C115.492 43.8366 113.679 41.865 111.385 41.865H32.9744C30.6808 41.865 28.8672 43.8366 28.8672 46.2877V96.3233H28.9205Z" stroke="url(#paint1_linear_406_1147)" class="svg-elem-24"></path>
            <path d="M45.5098 61.6874H93.9964M45.5098 71.3854H93.9964M45.5098 81.0835H93.9964" stroke="#0561FC" class="svg-elem-25"></path>
        </g>
    </g>
    <defs>
        <linearGradient id="paint0_linear_406_1147" x1="84.5" y1="0" x2="84.5" y2="169" gradientUnits="userSpaceOnUse">
            <stop stop-color="#4be1ec"></stop>
            <stop offset="1" stop-color="#BB84E8"></stop>
        </linearGradient>
        <linearGradient id="paint1_linear_406_1147" x1="72.1797" y1="41.865" x2="72.1797" y2="117.265" gradientUnits="userSpaceOnUse">
            <stop stop-color="#4be1ec"></stop>
            <stop offset="1" stop-color="#BB84E8"></stop>
        </linearGradient>
        <clipPath id="clip0_406_1147">
            <rect width="169" height="169" fill="white" class="svg-elem-26"></rect>
        </clipPath>
        <clipPath id="clip1_406_1147">
            <rect width="115.909" height="90" fill="white" transform="translate(27 40)" class="svg-elem-27"></rect>
        </clipPath>
    </defs>
</svg>
