<svg xmlns="http://www.w3.org/2000/svg" width="86" height="89" viewBox="0 0 86 89" fill="none">
    <path d="M85.4175 0H0.743782C0.621891 0 0.5 0.0819672 0.5 0.204918V67.9098C0.5 68.0328 0.581261 68.1148 0.703152 68.1148H56.0011L72.6596 81.1885V68.1148H85.4175C85.5394 68.1148 85.6207 68.0328 85.6207 67.9098V0.204918C85.6613 0.0819672 85.5394 0 85.4175 0Z" fill="#292040"/>
    <path d="M0.5 68.1557H56.0417L72.7002 81.2295V68.1557H84.2799" stroke="#0561FC"/>
    <path d="M63.924 74.0574H30.1196L13.4611 87.1311V74.0574H0.5M84.2799 74.0574H72.2533M38.0018 28.4836H28.7381M43.5276 56.4754H52.7913M34.3045 28.4836H47.2656V56.4754H34.3045V28.4836Z" stroke="url(#paint0_linear_306_743)"/>
    <path d="M42.5748 22.3392C46.3678 20.8122 48.2155 16.4727 46.7016 12.6467C45.1877 8.82064 40.8856 6.95695 37.0925 8.484C33.2995 10.011 31.4519 14.3506 32.9657 18.1766C34.4796 22.0026 38.7817 23.8663 42.5748 22.3392Z" stroke="url(#paint1_linear_306_743)"/>
    <defs>
        <linearGradient id="paint0_linear_306_743" x1="42.3899" y1="28.4836" x2="42.3899" y2="87.1311" gradientUnits="userSpaceOnUse">
            <stop stop-color="#0561FC"/>
            <stop offset="1" stop-color="#BB84E8"/>
        </linearGradient>
        <linearGradient id="paint1_linear_306_743" x1="37.0925" y1="8.484" x2="42.6572" y2="22.3061" gradientUnits="userSpaceOnUse">
            <stop stop-color="#0561FC"/>
            <stop offset="1" stop-color="#BB84E8"/>
        </linearGradient>
    </defs>
</svg>