<svg width="169" height="169" viewBox="0 0 169 169" fill="none" xmlns="http://www.w3.org/2000/svg">
    <mask id="path-1-inside-1_408_1162" fill="white">
        <path d="M169 84.5C169 62.2258 160.205 40.8524 144.529 25.0288C128.852 9.20528 107.562 0.211477 85.2883 0.00367722C63.015 -0.204122 41.5606 8.39089 25.5914 23.9192C9.62232 39.4475 0.430289 60.6531 0.0147086 82.9234C-0.400872 105.194 7.99361 126.728 23.3723 142.841C38.751 158.954 59.8698 168.344 82.1353 168.967C104.401 169.59 126.012 161.397 142.268 146.169C158.524 130.942 168.11 109.911 168.941 87.6526L167.794 87.6098C166.975 109.566 157.519 130.311 141.484 145.332C125.448 160.353 104.131 168.435 82.1675 167.82C60.2043 167.205 39.3722 157.943 24.2024 142.049C9.0326 126.154 0.752117 104.913 1.16205 82.9449C1.57199 60.9769 10.6392 40.0594 26.3914 24.7419C42.1437 9.42448 63.3068 0.946195 85.2776 1.15117C107.248 1.35615 128.25 10.2278 143.713 25.8365C159.177 41.4452 167.852 62.5283 167.852 84.5H169Z" class="svg-elem-1"></path>
    </mask>
    <path d="M169 84.5C169 62.2258 160.205 40.8524 144.529 25.0288C128.852 9.20528 107.562 0.211477 85.2883 0.00367722C63.015 -0.204122 41.5606 8.39089 25.5914 23.9192C9.62232 39.4475 0.430289 60.6531 0.0147086 82.9234C-0.400872 105.194 7.99361 126.728 23.3723 142.841C38.751 158.954 59.8698 168.344 82.1353 168.967C104.401 169.59 126.012 161.397 142.268 146.169C158.524 130.942 168.11 109.911 168.941 87.6526L167.794 87.6098C166.975 109.566 157.519 130.311 141.484 145.332C125.448 160.353 104.131 168.435 82.1675 167.82C60.2043 167.205 39.3722 157.943 24.2024 142.049C9.0326 126.154 0.752117 104.913 1.16205 82.9449C1.57199 60.9769 10.6392 40.0594 26.3914 24.7419C42.1437 9.42448 63.3068 0.946195 85.2776 1.15117C107.248 1.35615 128.25 10.2278 143.713 25.8365C159.177 41.4452 167.852 62.5283 167.852 84.5H169Z" stroke="url(#paint0_linear_408_1162)" stroke-width="2" mask="url(#path-1-inside-1_408_1162)" class="svg-elem-2"></path>
    <g clip-path="url(#clip0_408_1162)">
        <path d="M126.918 40H42.2438C42.1219 40 42 40.082 42 40.2049V107.91C42 108.033 42.0813 108.115 42.2032 108.115H97.5011L114.16 121.189V108.115H126.918C127.039 108.115 127.121 108.033 127.121 107.91V40.2049C127.161 40.082 127.039 40 126.918 40Z" fill="#292040" class="svg-elem-3"></path>
        <path d="M42 108.156H97.5417L114.2 121.23V108.156H125.78" stroke="#4be1ec" class="svg-elem-4"></path>
        <path d="M105.424 114.057H71.6196L54.9611 127.131V114.057H42M125.78 114.057H113.753M79.5018 68.4836H70.2381M85.0276 96.4754H94.2913M75.8045 68.4836H88.7656V96.4754H75.8045V68.4836Z" stroke="url(#paint1_linear_408_1162)" class="svg-elem-5"></path>
        <path d="M84.0748 62.3392C87.8678 60.8121 89.7155 56.4726 88.2016 52.6466C86.6877 48.8206 82.3856 46.9569 78.5925 48.4839C74.7995 50.011 72.9519 54.3505 74.4657 58.1765C75.9796 62.0025 80.2817 63.8662 84.0748 62.3392Z" stroke="url(#paint2_linear_408_1162)" class="svg-elem-6"></path>
    </g>
    <defs>
        <linearGradient id="paint0_linear_408_1162" x1="84.5" y1="0" x2="84.5" y2="169" gradientUnits="userSpaceOnUse">
            <stop stop-color="#4be1ec"></stop>
            <stop offset="1" stop-color="#BB84E8"></stop>
        </linearGradient>
        <linearGradient id="paint1_linear_408_1162" x1="83.8899" y1="68.4836" x2="83.8899" y2="127.131" gradientUnits="userSpaceOnUse">
            <stop stop-color="#4be1ec"></stop>
            <stop offset="1" stop-color="#BB84E8"></stop>
        </linearGradient>
        <linearGradient id="paint2_linear_408_1162" x1="78.5925" y1="48.4839" x2="84.1572" y2="62.306" gradientUnits="userSpaceOnUse">
            <stop stop-color="#4be1ec"></stop>
            <stop offset="1" stop-color="#BB84E8"></stop>
        </linearGradient>
        <clipPath id="clip0_408_1162">
            <rect width="85.1613" height="90" fill="white" transform="translate(42 40)" class="svg-elem-7"></rect>
        </clipPath>
    </defs>
</svg>









