<svg xmlns="http://www.w3.org/2000/svg" width="119" height="89" viewBox="0 0 119 89" fill="none">
    <path d="M116.706 18.5635V79.7789C116.706 84.3646 113.01 88.0662 108.433 88.0662H10.2585C5.68067 88.0662 1.98535 84.3646 1.98535 79.7789V18.5635" stroke="url(#paint0_linear_259_1062)"/>
    <path d="M110.253 0H8.38346C3.80567 0 0.110352 3.70166 0.110352 8.28729V16.5193H118.581V8.28729C118.581 3.70166 114.886 0 110.253 0Z" fill="#292040"/>
    <path d="M11.7474 8.78455H8.93457M17.7041 8.78455H14.9464M23.7159 8.78455H20.903M45.2259 62.4862L35.6843 56.9613L26.1426 51.4365L35.6843 45.9116L45.2259 40.3868M67.9494 62.4862L77.4911 56.9613L87.0327 51.4365L77.4911 45.9116L67.9494 40.3868M63.7025 32.9834L49.1419 69.9448" stroke="#0561FC"/>
    <defs>
        <linearGradient id="paint0_linear_259_1062" x1="59.3456" y1="18.5635" x2="59.3456" y2="88.0662" gradientUnits="userSpaceOnUse">
            <stop stop-color="#0561FC"/>
            <stop offset="1" stop-color="#BB84E8"/>
        </linearGradient>
    </defs>
</svg>