<svg xmlns="http://www.w3.org/2000/svg" width="169" height="169" viewBox="0 0 169 169" fill="none">
    <mask id="path-1-inside-1_406_1140" fill="white">
        <path d="M169 84.5C169 62.2258 160.205 40.8524 144.529 25.0288C128.852 9.20528 107.562 0.211477 85.2883 0.00367722C63.015 -0.204122 41.5606 8.39089 25.5914 23.9192C9.62232 39.4475 0.430289 60.6531 0.0147086 82.9234C-0.400872 105.194 7.99361 126.728 23.3723 142.841C38.751 158.954 59.8698 168.344 82.1353 168.967C104.401 169.59 126.012 161.397 142.268 146.169C158.524 130.942 168.11 109.911 168.941 87.6526L167.794 87.6098C166.975 109.566 157.519 130.311 141.484 145.332C125.448 160.353 104.131 168.435 82.1675 167.82C60.2043 167.205 39.3722 157.943 24.2024 142.049C9.0326 126.154 0.752117 104.913 1.16205 82.9449C1.57199 60.9769 10.6392 40.0594 26.3914 24.7419C42.1437 9.42448 63.3068 0.946195 85.2776 1.15117C107.248 1.35615 128.25 10.2278 143.713 25.8365C159.177 41.4452 167.852 62.5283 167.852 84.5H169Z" class="svg-elem-15"></path>
    </mask>
    <path d="M169 84.5C169 62.2258 160.205 40.8524 144.529 25.0288C128.852 9.20528 107.562 0.211477 85.2883 0.00367722C63.015 -0.204122 41.5606 8.39089 25.5914 23.9192C9.62232 39.4475 0.430289 60.6531 0.0147086 82.9234C-0.400872 105.194 7.99361 126.728 23.3723 142.841C38.751 158.954 59.8698 168.344 82.1353 168.967C104.401 169.59 126.012 161.397 142.268 146.169C158.524 130.942 168.11 109.911 168.941 87.6526L167.794 87.6098C166.975 109.566 157.519 130.311 141.484 145.332C125.448 160.353 104.131 168.435 82.1675 167.82C60.2043 167.205 39.3722 157.943 24.2024 142.049C9.0326 126.154 0.752117 104.913 1.16205 82.9449C1.57199 60.9769 10.6392 40.0594 26.3914 24.7419C42.1437 9.42448 63.3068 0.946195 85.2776 1.15117C107.248 1.35615 128.25 10.2278 143.713 25.8365C159.177 41.4452 167.852 62.5283 167.852 84.5H169Z" stroke="url(#paint0_linear_406_1140)" stroke-width="2" mask="url(#path-1-inside-1_406_1140)" class="svg-elem-16"></path>
    <g clip-path="url(#clip0_406_1140)">
        <path d="M141.705 58.5635V119.779C141.705 124.365 138.009 128.066 133.432 128.066H35.2575C30.6797 128.066 26.9844 124.365 26.9844 119.779V58.5635" stroke="url(#paint1_linear_406_1140)" class="svg-elem-17"></path>
        <path d="M135.252 40H33.3825C28.8047 40 25.1094 43.7017 25.1094 48.2873V56.5193H143.58V48.2873C143.58 43.7017 139.885 40 135.252 40Z" fill="#292040" class="svg-elem-18"></path>
        <path d="M36.7464 48.7845H33.9336M42.7031 48.7845H39.9454M48.7149 48.7845H45.902M70.225 102.486L60.6833 96.9613L51.1417 91.4365L60.6833 85.9116L70.225 80.3868M92.9484 102.486L102.49 96.9613L112.032 91.4365L102.49 85.9116L92.9484 80.3868M88.7016 72.9834L74.1409 109.945" stroke="#0561FC" class="svg-elem-19"></path>
    </g>
    <defs>
        <linearGradient id="paint0_linear_406_1140" x1="84.5" y1="0" x2="84.5" y2="169" gradientUnits="userSpaceOnUse">
            <stop stop-color="#0561FC"></stop>
            <stop offset="1" stop-color="#BB84E8"></stop>
        </linearGradient>
        <linearGradient id="paint1_linear_406_1140" x1="84.3446" y1="58.5635" x2="84.3446" y2="128.066" gradientUnits="userSpaceOnUse">
            <stop stop-color="#0561FC"></stop>
            <stop offset="1" stop-color="#BB84E8"></stop>
        </linearGradient>
        <clipPath id="clip0_406_1140">
            <rect width="118.636" height="90" fill="white" transform="translate(25 40)" class="svg-elem-20"></rect>
        </clipPath>
    </defs>
</svg>