<svg xmlns="http://www.w3.org/2000/svg" version="1.0" width="100px" height="100px"
     viewBox="0 0 1024.000000 1024.000000" preserveAspectRatio="xMidYMid meet">

    <g fill="url(#myGradient)" transform="translate(0.000000,1024.000000) scale(0.100000,-0.100000)" stroke="none">
        <path d="M4670 9514 c-307 -26 -606 -100 -900 -221 -183 -75 -419 -215 -585 -348 -368 -294 -695 -733 -835 -1120 -18 -49 -36 -94 -40 -100 -15 -19 -89 -263 -114 -377 -47 -212 -58 -304 -63 -557 -8 -348 15 -554 93 -851 71 -267 155 -471 375 -912 187 -373 229 -466 298 -651 80 -214 138 -440 175 -674 17 -105 24 -121 66 -157 46 -38 99 -51 146 -36 59 20 81 38 105 87 18 38 21 54 15 116 -10 113 -56 422 -77 526 -11 52 -17 96 -15 98 2 2 26 -24 52 -59 148 -192 306 -337 439 -402 76 -37 209 -76 260 -76 18 0 34 -2 37 -5 7 -7 -17 -137 -44 -238 -13 -49 -30 -87 -47 -105 -28 -31 -124 -70 -711 -290 -602 -226 -674 -258 -853 -375 -403 -264 -665 -665 -763 -1174 -26 -132 -28 -155 -32 -523 -3 -263 0 -396 7 -421 6 -21 27 -51 46 -68 l36 -31 3317 0 c3211 0 3318 1 3352 19 19 10 45 36 57 57 22 38 23 48 23 322 l0 282 68 0 c202 1 415 90 549 232 83 88 90 175 21 233 -30 25 -36 27 -93 20 -127 -16 -206 -11 -259 14 -95 47 -159 135 -193 264 -30 117 -4 289 69 465 28 67 34 75 82 99 145 74 282 196 354 316 57 94 104 215 105 266 1 87 -57 161 -126 161 -33 0 -58 -12 -110 -54 -33 -26 -49 -31 -107 -34 -57 -4 -78 0 -123 21 -152 69 -226 218 -213 427 8 129 33 226 127 490 182 509 239 781 239 1135 0 450 -94 814 -301 1177 -92 160 -270 365 -429 494 -189 152 -455 275 -685 315 -54 9 -66 15 -70 33 -109 495 -303 905 -601 1266 -398 484 -1016 822 -1654 905 -115 16 -386 26 -470 19z m59 -1631 c60 -122 164 -312 321 -583 164 -282 288 -515 389 -727 50 -105 91 -196 91 -202 0 -6 -88 -10 -240 -11 l-241 -1 -59 37 c-80 49 -130 53 -540 47 -322 -4 -337 -5 -386 -27 -59 -27 -116 -80 -144 -136 l-20 -40 -103 0 -102 0 -24 46 c-26 47 -81 98 -141 130 -30 15 -74 19 -309 26 -151 5 -276 10 -277 11 -1 1 -5 43 -9 93 l-7 90 64 34 c270 143 672 395 923 579 300 219 503 415 689 664 32 42 61 77 65 77 4 0 30 -48 60 -107z m1734 -1468 c164 -35 290 -159 342 -339 21 -73 21 -220 0 -301 -71 -275 -312 -484 -557 -485 -42 0 -80 5 -83 10 -4 6 -11 97 -16 203 -9 199 -22 331 -59 622 l-22 170 46 42 c30 27 68 48 109 62 105 34 144 37 240 16z m-3020 -191 c43 -21 77 -71 77 -116 0 -39 -74 -368 -89 -397 -6 -10 -26 -32 -46 -50 l-36 -31 -168 0 -169 0 -11 78 c-17 116 -51 441 -51 490 l0 42 230 0 c189 0 235 -3 263 -16z m1435 -18 l37 -35 -3 -193 c-2 -106 -8 -210 -13 -230 -10 -40 -58 -94 -96 -109 -13 -5 -136 -9 -272 -9 l-248 0 -40 29 c-51 37 -60 58 -123 278 l-52 182 18 38 c11 21 34 48 53 60 34 23 38 23 368 23 l333 0 38 -34z m765 -168 c103 -332 149 -728 127 -1097 -15 -251 -43 -443 -120 -831 -35 -172 -33 -205 13 -257 40 -45 77 -63 130 -63 48 0 96 26 130 71 23 32 133 469 172 684 15 83 30 153 33 156 4 3 34 16 67 29 179 69 384 196 536 333 137 122 313 347 388 495 12 23 24 42 28 42 9 0 -6 -144 -27 -250 -10 -52 -33 -135 -50 -185 -35 -97 -136 -306 -198 -407 -254 -416 -357 -677 -391 -990 -12 -108 -13 -362 -2 -450 6 -49 5 -58 -8 -58 -9 0 -98 32 -198 70 -100 39 -195 70 -211 70 -36 0 -46 -12 -111 -130 -202 -369 -486 -609 -836 -707 -112 -31 -345 -42 -476 -24 -157 23 -337 96 -454 184 -70 53 -198 180 -227 225 l-19 31 53 27 c94 47 215 132 267 189 61 67 104 154 134 270 l22 87 135 42 c160 50 205 69 313 135 273 166 475 415 607 747 17 42 29 78 27 80 -2 2 -46 -25 -98 -59 -97 -65 -341 -200 -464 -257 -297 -137 -569 -210 -779 -210 -205 0 -316 56 -490 248 -190 210 -395 523 -492 751 -37 88 -107 292 -118 347 l-7 31 168 5 c145 4 175 8 218 27 62 27 139 101 171 163 18 35 124 398 124 424 0 2 31 4 70 4 l69 0 57 -177 c31 -98 67 -200 81 -228 33 -68 96 -130 168 -168 l60 -32 286 -3 c265 -3 290 -2 338 17 102 39 182 120 229 233 25 59 27 75 30 256 l4 192 248 0 248 0 25 -82z m-465 -4159 c17 -6 38 -21 46 -34 32 -49 22 -74 -86 -212 -57 -71 -146 -184 -198 -251 -52 -68 -132 -170 -178 -229 -46 -59 -91 -113 -100 -120 -9 -7 -36 -13 -60 -13 -77 0 -117 70 -75 130 10 14 117 151 238 305 121 155 243 311 270 347 65 86 85 97 143 77z m-1105 -99 c28 -22 50 -80 40 -108 -3 -9 -59 -69 -124 -132 l-119 -115 120 -108 c118 -106 120 -108 120 -151 0 -53 -26 -90 -76 -106 -43 -15 -58 -6 -164 95 -41 39 -109 100 -150 135 -41 36 -83 74 -92 85 -38 44 -13 103 74 176 29 24 101 90 160 147 99 93 111 102 147 102 23 0 48 -8 64 -20z m1709 -139 c96 -88 180 -172 187 -188 18 -44 3 -71 -80 -144 -40 -35 -116 -104 -169 -153 -52 -48 -106 -92 -119 -97 -54 -21 -131 35 -131 96 0 51 10 62 169 198 l83 71 -64 60 c-35 34 -92 86 -126 116 -58 52 -62 59 -62 99 0 59 41 101 98 101 38 0 50 -9 214 -159z"/>
    </g>
    <defs>
        <linearGradient id="myGradient" x1="0%" y1="0%" x2="100%" y2="100%">
            <stop offset="0%" style="stop-color:#4be1ec" />
            <stop offset="70%" style="stop-color:#BB84E8" />
        </linearGradient>
    </defs>
</svg>