<svg xmlns="http://www.w3.org/2000/svg" width="1440" height="344" viewBox="0 0 1440 344" fill="none">
    <path fill-rule="evenodd" clip-rule="evenodd" d="M829.453 36.7849C828.762 36.5901 828.07 36.4002 827.374 36.2151C826.87 35.7564 826.367 35.3009 825.862 34.8535C826.549 35.111 827.231 35.3846 827.913 35.6582C828.427 36.0295 828.941 36.4051 829.453 36.7849ZM837.013 42.8399C835.83 42.5679 834.635 42.3297 833.442 42.0866C832.598 41.2282 831.749 40.3811 830.894 39.5452C832.054 39.8912 833.212 40.2437 834.36 40.6187C835.256 41.3451 836.142 42.0856 837.021 42.8399H837.013ZM843.607 44.5395C842.925 44.3495 842.243 44.1597 841.559 43.9778C841.062 43.5218 840.563 43.0716 840.062 42.6274C840.734 42.8801 841.4 43.1473 842.068 43.4112C842.597 43.783 843.108 44.1596 843.621 44.5395H843.607ZM843.83 49.1024C842.307 48.8304 840.774 48.5714 839.237 48.346C838.22 47.1904 837.196 46.0573 836.163 44.9467C837.654 45.2831 839.131 45.6549 840.602 46.0396C841.696 47.0375 842.777 48.0584 843.845 49.1024H843.83ZM851.172 50.5961C849.997 50.3241 848.808 50.0858 847.621 49.8444C846.782 48.986 845.936 48.1405 845.085 47.3079C846.235 47.6523 847.383 48.0015 848.523 48.3749C849.421 49.1014 850.309 49.8418 851.187 50.5961H851.172ZM857.766 52.2941C857.087 52.1031 856.405 51.9153 855.722 51.7308C855.225 51.2769 854.726 50.8273 854.227 50.382C854.897 50.6363 855.565 50.9035 856.23 51.1659C856.761 51.5377 857.271 51.9143 857.783 52.2941H857.766ZM992.615 182.883C992.207 182.722 991.8 182.561 991.393 182.391L991.203 182.257L992.35 182.661L992.615 182.883ZM850.157 55.6709C848.396 55.4466 846.627 55.2481 844.85 55.0753C843.747 53.6804 842.633 52.3161 841.509 50.9824C843.232 51.2753 844.948 51.5876 846.656 51.9304C847.843 53.1472 849.016 54.394 850.174 55.6709H850.157ZM857.992 56.8554C856.472 56.585 854.949 56.3276 853.413 56.1022C852.397 54.9466 851.375 53.8146 850.347 52.7062C851.832 53.0409 853.3 53.4095 854.765 53.7941C855.86 54.792 856.941 55.8125 858.008 56.8554H857.992ZM865.332 58.3491C864.156 58.0771 862.969 57.8405 861.782 57.5975C860.943 56.7391 860.098 55.8941 859.248 55.0625C860.396 55.4069 861.544 55.7561 862.683 56.1279C863.582 56.8554 864.47 57.5959 865.348 58.3491H865.332ZM871.926 60.0471C871.244 59.8561 870.562 59.6683 869.879 59.4838C869.383 59.032 868.886 58.583 868.386 58.1366C869.057 58.3893 869.721 58.6565 870.387 58.9204C870.911 59.2906 871.431 59.6662 871.945 60.0471H871.926ZM1001.84 186.482C1001.01 186.173 1000.19 185.869 999.361 185.553C999.005 185.28 998.655 184.993 998.301 184.718C999.115 184.992 999.932 185.257 1000.75 185.523L1001.84 186.482ZM1006.78 190.641L1005.56 190.149L1005.31 189.972L1006.47 190.38L1006.78 190.641ZM856.078 62.5708C854.133 62.4179 852.176 62.3037 850.209 62.2119C849.061 60.6024 847.9 59.0315 846.727 57.4992C848.635 57.702 850.531 57.9392 852.414 58.2107C853.662 59.6292 854.889 61.0826 856.095 62.5708H856.078ZM864.319 63.4239C862.559 63.1996 860.79 63.0011 859.011 62.8284C857.911 61.4335 856.8 60.0702 855.677 58.7386C857.396 59.0315 859.108 59.3422 860.808 59.6834C862 60.9023 863.176 62.1491 864.336 63.4239H864.319ZM872.153 64.6085C870.633 64.3381 869.11 64.0789 867.574 63.8552C866.56 62.6996 865.537 61.5676 864.507 60.4591C865.99 60.7939 867.461 61.1625 868.927 61.5472C870.022 62.5451 871.104 63.566 872.171 64.6101L872.153 64.6085ZM879.49 66.1021C878.316 65.8301 877.128 65.5935 875.942 65.3505C875.1 64.4921 874.255 63.6471 873.406 62.8155C874.554 63.1599 875.703 63.5092 876.843 63.8826C877.742 64.609 878.631 65.3488 879.508 66.1021H879.49ZM886.084 67.8001C885.402 67.6091 884.72 67.4213 884.037 67.2368C883.542 66.7829 883.044 66.3344 882.544 65.8912C883.215 66.1439 883.881 66.4095 884.547 66.6734C885.081 67.0436 885.595 67.4202 886.105 67.8001H886.084ZM1011.01 189.77C1009.86 189.378 1008.72 188.983 1007.57 188.578C1007.02 188.125 1006.49 187.652 1005.94 187.194C1007.08 187.551 1008.22 187.897 1009.36 188.241C1009.93 188.756 1010.48 189.262 1011.03 189.77H1011.01ZM1016 194.24C1015.17 193.933 1014.35 193.625 1013.52 193.311C1013.15 193.025 1012.78 192.727 1012.41 192.439C1013.23 192.714 1014.05 192.978 1014.87 193.244C1015.27 193.577 1015.64 193.912 1016.02 194.24H1016ZM1020.93 198.396L1019.71 197.903L1019.46 197.721L1020.62 198.132L1020.93 198.396ZM861.667 69.849C859.566 69.7846 857.456 69.7476 855.33 69.7541C854.175 67.9707 853.007 66.226 851.825 64.5199C853.89 64.6358 855.944 64.7871 857.985 64.9738C859.244 66.5554 860.48 68.1805 861.692 69.849H861.667ZM870.231 70.3238C868.288 70.1725 866.331 70.0567 864.364 69.9649C863.218 68.3554 862.059 66.7846 860.887 65.2523C862.794 65.4551 864.688 65.6927 866.569 65.9653C867.816 67.3827 869.045 68.8356 870.257 70.3238H870.231ZM878.474 71.1785C876.714 70.9532 874.945 70.7541 873.166 70.5814C872.066 69.1865 870.955 67.8232 869.834 66.4916C871.553 66.7845 873.266 67.0935 874.966 67.438C876.161 68.6547 877.339 69.9016 878.499 71.1785H878.474ZM886.306 72.3615C884.786 72.0911 883.262 71.8319 881.726 71.6082C880.712 70.4526 879.69 69.3206 878.659 68.2121C880.143 68.5485 881.613 68.9171 883.08 69.3002C884.181 70.2981 885.265 71.3185 886.332 72.3615H886.306ZM893.642 73.8551C892.468 73.5831 891.281 73.3465 890.094 73.1035C889.252 72.2451 888.407 71.4001 887.558 70.5685C888.708 70.9129 889.856 71.2638 890.996 71.6356C891.9 72.362 892.791 73.1018 893.668 73.8551H893.642ZM900.236 75.5532C899.555 75.3622 898.874 75.1749 898.192 74.9914C897.695 74.5375 897.198 74.0852 896.698 73.641C897.367 73.8937 898.033 74.1609 898.698 74.4249C899.229 74.7972 899.75 75.1738 900.26 75.5547L900.236 75.5532ZM1020.19 192.788C1018.8 192.353 1017.4 191.906 1016.01 191.447C1015.33 190.847 1014.66 190.223 1013.98 189.611C1015.38 190.017 1016.78 190.413 1018.18 190.8C1018.87 191.47 1019.54 192.128 1020.21 192.788H1020.19ZM1025.18 197.528C1024.03 197.135 1022.88 196.737 1021.74 196.334C1021.18 195.872 1020.63 195.386 1020.07 194.918C1021.22 195.275 1022.36 195.623 1023.5 195.969C1024.07 196.49 1024.63 197.01 1025.19 197.528H1025.18ZM1030.16 201.991C1029.34 201.682 1028.51 201.378 1027.69 201.063C1027.32 200.778 1026.95 200.48 1026.58 200.19C1027.4 200.466 1028.22 200.731 1029.03 200.995C1029.43 201.33 1029.8 201.665 1030.18 201.991H1030.16ZM1035.1 206.147L1033.88 205.656L1033.62 205.476L1034.79 205.886L1035.1 206.147ZM866.998 77.5473C864.766 77.5779 862.521 77.6487 860.261 77.7469C859.109 75.7844 857.943 73.8647 856.761 71.988C858.961 72.0041 861.148 72.0578 863.32 72.149C864.573 73.9012 865.805 75.6991 867.016 77.5425L866.998 77.5473ZM875.844 77.6069C873.744 77.5425 871.635 77.5055 869.507 77.5119C868.352 75.7286 867.185 73.9839 866.004 72.2778C868.072 72.3937 870.124 72.5445 872.163 72.7301C873.411 74.3138 874.641 75.9378 875.854 77.6021L875.844 77.6069ZM884.408 78.0817C882.464 77.9304 880.508 77.8145 878.541 77.7228C877.394 76.1133 876.235 74.5429 875.064 73.0117C876.97 73.2135 878.865 73.4506 880.748 73.7231C881.988 75.1374 883.212 76.5886 884.418 78.0768L884.408 78.0817ZM892.649 78.9363C890.89 78.711 889.121 78.5119 887.342 78.3392C886.242 76.9443 885.131 75.5816 884.01 74.251C885.729 74.5423 887.442 74.853 889.143 75.1958C890.328 76.4094 891.5 77.6557 892.659 78.9347L892.649 78.9363ZM900.482 80.1193C898.962 79.8489 897.438 79.5898 895.902 79.3661C894.888 78.2105 893.866 77.0784 892.835 75.97C894.319 76.3048 895.791 76.6733 897.256 77.058C898.346 78.0527 899.425 79.0715 900.492 80.1145L900.482 80.1193ZM907.816 81.6113C906.64 81.3409 905.453 81.1044 904.266 80.8613C903.426 80.0029 902.581 79.1579 901.73 78.3263C902.88 78.6708 904.027 79.02 905.166 79.3918C906.062 80.1139 906.949 80.8522 907.826 81.6065L907.816 81.6113ZM914.41 83.3094C913.729 83.1184 913.049 82.9311 912.368 82.7476C911.871 82.2954 911.372 81.8447 910.874 81.4005C911.543 81.6531 912.205 81.9187 912.871 82.1811C913.392 82.5491 913.908 82.9236 914.42 83.3045L914.41 83.3094ZM1029.46 195.571C1027.86 195.112 1026.26 194.641 1024.65 194.159C1023.88 193.43 1023.12 192.679 1022.36 191.937C1023.98 192.366 1025.6 192.786 1027.21 193.195C1027.96 193.992 1028.72 194.776 1029.47 195.566L1029.46 195.571ZM1034.37 200.549C1032.97 200.111 1031.58 199.665 1030.19 199.209C1029.49 198.598 1028.82 197.964 1028.13 197.343C1029.53 197.751 1030.93 198.148 1032.33 198.534C1033.01 199.209 1033.7 199.875 1034.38 200.544L1034.37 200.549ZM1039.34 205.283C1038.2 204.89 1037.05 204.493 1035.91 204.09C1035.35 203.627 1034.8 203.144 1034.24 202.675C1035.38 203.031 1036.52 203.381 1037.67 203.726C1038.23 204.245 1038.79 204.761 1039.35 205.281L1039.34 205.283ZM1044.33 209.748C1043.5 209.44 1042.68 209.134 1041.85 208.821C1041.48 208.534 1041.12 208.238 1040.75 207.95C1041.56 208.225 1042.38 208.491 1043.2 208.755C1043.59 209.083 1043.96 209.418 1044.34 209.743L1044.33 209.748ZM1049.27 213.907L1048.05 213.414L1047.79 213.235L1048.96 213.646L1049.27 213.907ZM872.029 85.6062C869.81 85.7296 867.577 85.8878 865.33 86.0809C864.031 84.0529 862.76 81.9912 861.519 79.8956C863.833 79.8023 866.131 79.7486 868.414 79.7347C869.648 81.6425 870.859 83.598 872.048 85.6013L872.029 85.6062ZM881.156 85.3003C878.924 85.3309 876.677 85.4017 874.419 85.4999C873.268 83.5374 872.101 81.6177 870.919 79.741C873.12 79.7571 875.306 79.8108 877.48 79.902C878.734 81.6542 879.966 83.4521 881.176 85.2955L881.156 85.3003ZM890.002 85.3599C887.911 85.2955 885.792 85.2585 883.664 85.2649C882.51 83.4816 881.342 81.7369 880.161 80.0308C882.226 80.1467 884.279 80.2979 886.321 80.4846C887.57 82.0684 888.801 83.6919 890.015 85.3551L890.002 85.3599ZM898.565 85.8347C896.622 85.6834 894.663 85.5691 892.698 85.4758C891.552 83.8663 890.393 82.2953 889.221 80.7631C891.128 80.9659 893.023 81.2036 894.904 81.4761C896.147 82.8936 897.372 84.3448 898.578 85.8298L898.565 85.8347ZM906.806 86.6894C905.047 86.464 903.277 86.265 901.499 86.0922C900.398 84.6973 899.288 83.334 898.166 82.0024C899.885 82.2954 901.6 82.606 903.3 82.9488C904.487 84.1624 905.66 85.4076 906.819 86.6845L906.806 86.6894ZM914.639 87.8723C913.117 87.6019 911.594 87.3444 910.056 87.1191C909.043 85.9645 908.021 84.8325 906.989 83.723C908.474 84.0578 909.942 84.4264 911.408 84.8094C912.502 85.8041 913.584 86.8235 914.651 87.8675L914.639 87.8723ZM921.973 89.366C920.799 89.0939 919.608 88.8573 918.423 88.6159C917.582 87.7575 916.737 86.912 915.888 86.0793C917.037 86.4238 918.183 86.7714 919.322 87.1432C920.22 87.8653 921.107 88.6046 921.986 89.3611L921.973 89.366ZM928.567 91.0639C927.886 90.873 927.203 90.6858 926.519 90.5023C926.024 90.0484 925.526 89.5993 925.027 89.1551C925.698 89.4078 926.363 89.6733 927.029 89.9373C927.556 90.3043 928.076 90.6782 928.591 91.0592L928.567 91.0639ZM1038.83 198.138C1037.05 197.673 1035.27 197.194 1033.48 196.704C1032.65 195.864 1031.83 195 1031.01 194.142C1032.82 194.585 1034.63 195.011 1036.43 195.421C1037.24 196.336 1038.05 197.234 1038.85 198.133L1038.83 198.138ZM1043.61 203.326C1042.01 202.865 1040.4 202.395 1038.8 201.914C1038.02 201.177 1037.26 200.417 1036.48 199.661C1038.11 200.09 1039.73 200.51 1041.34 200.921C1042.11 201.74 1042.87 202.522 1043.63 203.321L1043.61 203.326ZM1048.51 208.299C1047.12 207.859 1045.73 207.412 1044.33 206.958C1043.64 206.348 1042.96 205.716 1042.28 205.096C1043.68 205.504 1045.08 205.901 1046.48 206.287C1047.17 206.96 1047.85 207.626 1048.53 208.294L1048.51 208.299ZM1053.49 213.034C1052.35 212.641 1051.2 212.247 1050.06 211.842C1049.5 211.38 1048.95 210.897 1048.39 210.428C1049.54 210.786 1050.68 211.133 1051.82 211.479C1052.39 211.998 1052.95 212.513 1053.51 213.029L1053.49 213.034ZM1058.48 217.502C1057.65 217.193 1056.83 216.889 1056 216.574C1055.63 216.289 1055.27 215.991 1054.9 215.703C1055.71 215.98 1056.53 216.245 1057.35 216.508C1057.75 216.839 1058.12 217.171 1058.5 217.497L1058.48 217.502ZM1063.42 221.661L1062.2 221.167L1061.93 220.984L1063.1 221.394L1063.42 221.661ZM877.144 94.0496C875.169 94.2363 873.187 94.4407 871.193 94.6789C869.67 92.5522 868.181 90.3869 866.725 88.1829C868.931 88.022 871.13 87.8611 873.319 87.7564C874.56 89.8896 875.834 91.9873 877.144 94.0496ZM886.208 93.3543C883.989 93.4798 881.756 93.6381 879.509 93.8291C878.208 91.8011 876.938 89.7393 875.699 87.6437C878.013 87.5504 880.311 87.4967 882.594 87.4828C883.815 89.396 885.02 91.3531 886.208 93.3543ZM895.337 93.0485C893.105 93.0791 890.858 93.1499 888.598 93.2481C887.447 91.2856 886.281 89.3659 885.1 87.4892C887.3 87.5053 889.487 87.559 891.659 87.6502C892.906 89.4056 894.132 91.2051 895.337 93.0485ZM904.175 93.1081C902.084 93.0437 899.964 93.0067 897.836 93.0131C896.681 91.2298 895.513 89.4877 894.333 87.787C896.401 87.9029 898.454 88.0542 900.493 88.2409C901.734 89.8225 902.961 91.4449 904.175 93.1081ZM912.738 93.5909C910.795 93.43 908.837 93.3221 906.87 93.2303C905.723 91.6208 904.564 90.05 903.393 88.5177C905.301 88.7205 907.195 88.9582 909.077 89.2308C910.311 90.6439 911.531 92.0941 912.738 93.5812V93.5909ZM920.977 94.4424C919.218 94.2181 917.448 94.0196 915.67 93.8468C914.566 92.4519 913.454 91.0892 912.334 89.7587C914.053 90.05 915.766 90.359 917.466 90.7035C918.647 91.916 919.817 93.1601 920.977 94.4359V94.4424ZM928.808 95.6269C927.29 95.3565 925.765 95.099 924.228 94.8736C923.214 93.718 922.192 92.5861 921.162 91.4776C922.645 91.8124 924.117 92.181 925.58 92.5656C926.666 93.5582 927.742 94.5764 928.808 95.6205V95.6269ZM936.15 97.1222C934.974 96.8502 933.786 96.6136 932.601 96.3705C931.759 95.5121 930.913 94.6671 930.064 93.8356C931.216 94.18 932.362 94.5309 933.503 94.9026C934.389 95.6237 935.272 96.3635 936.15 97.1222ZM942.744 98.8202C942.064 98.6292 941.382 98.442 940.698 98.2585C940.203 97.8046 939.705 97.3523 939.204 96.9081C939.875 97.1608 940.539 97.428 941.205 97.6919C941.718 98.0632 942.231 98.4366 942.744 98.8121V98.8202ZM1048.37 200.512C1046.43 200.054 1044.49 199.58 1042.54 199.089C1041.67 198.149 1040.82 197.185 1039.97 196.223C1041.94 196.662 1043.92 197.085 1045.88 197.493C1046.7 198.507 1047.54 199.5 1048.37 200.504L1048.37 200.512ZM1053.01 205.896C1051.23 205.43 1049.44 204.952 1047.66 204.46C1046.82 203.614 1046 202.743 1045.17 201.877C1046.98 202.32 1048.79 202.749 1050.59 203.165C1051.39 204.077 1052.2 204.979 1053.01 205.888L1053.01 205.896ZM1057.79 211.079C1056.19 210.619 1054.59 210.149 1052.98 209.667C1052.2 208.932 1051.44 208.173 1050.67 207.423C1052.29 207.853 1053.91 208.273 1055.53 208.684C1056.27 209.485 1057.03 210.271 1057.79 211.075L1057.79 211.079ZM1062.7 216.054C1061.3 215.618 1059.91 215.172 1058.52 214.714C1057.82 214.104 1057.15 213.472 1056.46 212.852C1057.87 213.26 1059.27 213.657 1060.67 214.043C1061.33 214.713 1062.01 215.379 1062.69 216.046L1062.7 216.054ZM1067.67 220.792C1066.53 220.399 1065.38 220.005 1064.24 219.599C1063.68 219.136 1063.13 218.655 1062.57 218.186C1063.72 218.544 1064.86 218.891 1066 219.237C1066.55 219.751 1067.11 220.269 1067.67 220.784L1067.67 220.792ZM1072.66 225.26C1071.84 224.953 1071.01 224.645 1070.19 224.331C1069.81 224.043 1069.45 223.745 1069.07 223.456C1069.89 223.731 1070.71 223.995 1071.53 224.26C1071.91 224.595 1072.28 224.917 1072.66 225.252L1072.66 225.26ZM1077.6 229.416L1076.38 228.923L1076.12 228.743L1077.28 229.152L1077.6 229.416ZM882.972 102.747C881.267 102.962 879.557 103.195 877.842 103.446C876.079 101.252 874.355 99.0122 872.669 96.7278C874.614 96.5057 876.55 96.3029 878.472 96.1307C879.932 98.37 881.433 100.572 882.974 102.736L882.972 102.747ZM891.302 101.814C889.327 102.002 887.344 102.205 885.351 102.443C883.825 100.317 882.335 98.1512 880.881 95.9473C883.09 95.7783 885.288 95.6253 887.476 95.5223C888.724 97.6479 890 99.7414 891.303 101.803L891.302 101.814ZM900.368 101.119C898.147 101.244 895.914 101.402 893.669 101.592C892.37 99.5649 891.099 97.5036 889.857 95.4081C892.171 95.3147 894.47 95.2611 896.754 95.2471C897.976 97.1506 899.181 99.104 900.37 101.107L900.368 101.119ZM909.495 100.813C907.263 100.843 905.016 100.914 902.756 101.012C901.605 99.0498 900.439 97.1302 899.258 95.2535C901.458 95.2696 903.645 95.3233 905.817 95.4145C907.061 97.1624 908.287 98.9581 909.497 100.801L909.495 100.813ZM918.333 100.872C916.233 100.808 914.122 100.771 911.995 100.777C910.841 98.9951 909.673 97.2504 908.492 95.5432C910.559 95.6591 912.612 95.8104 914.651 95.9971C915.894 97.5765 917.122 99.1979 918.335 100.861L918.333 100.872ZM926.896 101.355C924.953 101.205 922.996 101.09 921.03 100.996C919.882 99.3867 918.722 97.8164 917.551 96.2852C919.459 96.4869 921.353 96.7241 923.234 96.9967C924.469 98.4012 925.69 99.8476 926.897 101.336L926.896 101.355ZM935.135 102.21C933.376 101.987 931.607 101.788 929.828 101.613C928.727 100.218 927.615 98.8546 926.492 97.523C928.213 97.8159 929.926 98.1249 931.626 98.4677C932.807 99.6738 933.978 100.915 935.137 102.191L935.135 102.21ZM942.971 103.393C941.451 103.122 939.926 102.863 938.389 102.64C937.376 101.485 936.354 100.353 935.323 99.2435C936.808 99.5783 938.278 99.9485 939.743 100.332C940.828 101.317 941.905 102.331 942.973 103.373L942.971 103.393ZM950.305 104.885C949.129 104.614 947.941 104.378 946.754 104.136C945.914 103.278 945.069 102.432 944.219 101.6C945.367 101.944 946.516 102.294 947.654 102.665C948.543 103.379 949.426 104.112 950.303 104.865L950.305 104.885ZM956.899 106.583C956.22 106.392 955.54 106.205 954.857 106.023C954.361 105.568 953.863 105.118 953.362 104.674C954.031 104.927 954.696 105.192 955.36 105.455C955.875 105.814 956.387 106.184 956.898 106.564L956.899 106.583ZM1058.06 202.706C1055.98 202.262 1053.89 201.8 1051.79 201.32C1050.9 200.287 1050.03 199.228 1049.17 198.175C1051.3 198.604 1053.42 199.014 1055.53 199.405C1056.35 200.504 1057.21 201.587 1058.06 202.687L1058.06 202.706ZM1062.54 208.278C1060.6 207.819 1058.65 207.345 1056.7 206.855C1055.83 205.906 1054.97 204.937 1054.11 203.968C1056.09 204.407 1058.07 204.831 1060.03 205.239C1060.85 206.247 1061.69 207.248 1062.53 208.259L1062.54 208.278ZM1067.17 213.655C1065.39 213.192 1063.6 212.714 1061.82 212.221C1060.98 211.375 1060.16 210.506 1059.33 209.646C1061.14 210.089 1062.95 210.519 1064.75 210.934C1065.54 211.829 1066.36 212.73 1067.16 213.636L1067.17 213.655ZM1071.95 218.843C1070.35 218.383 1068.74 217.912 1067.14 217.431C1066.36 216.696 1065.6 215.935 1064.83 215.186C1066.45 215.615 1068.07 216.035 1069.69 216.446C1070.43 217.235 1071.19 218.027 1071.95 218.824L1071.95 218.843ZM1076.86 223.82C1075.46 223.382 1074.07 222.935 1072.68 222.48C1071.98 221.87 1071.31 221.238 1070.62 220.618C1072.03 221.024 1073.43 221.421 1074.83 221.809C1075.49 222.468 1076.17 223.132 1076.85 223.8L1076.86 223.82ZM1081.84 228.559C1080.7 228.168 1079.55 227.77 1078.41 227.365C1077.85 226.902 1077.3 226.416 1076.74 225.947C1077.88 226.302 1079.02 226.653 1080.16 226.998C1080.71 227.504 1081.27 228.022 1081.83 228.54L1081.84 228.559ZM1086.83 233.023C1086.01 232.714 1085.18 232.409 1084.36 232.096C1083.98 231.808 1083.62 231.511 1083.25 231.222C1084.07 231.497 1084.88 231.762 1085.7 232.026C1086.07 232.342 1086.44 232.677 1086.82 233.003L1086.83 233.023ZM1091.77 237.18L1090.55 236.688L1090.29 236.507L1091.46 236.918L1091.77 237.18ZM85.5664 279.188C95.3569 282.836 105.305 286.244 115.411 289.412C206.572 317.976 308.676 325.983 394.527 296.404C463.135 272.765 534.003 236.974 603.082 202.086C699.389 153.447 792.222 106.573 870.278 97.0224C871.963 99.3368 873.689 101.604 875.455 103.824C798.921 115.735 709.215 161.021 616.28 207.959C547.233 242.831 476.402 278.604 408.001 302.172C322.604 331.567 220.973 323.58 130.191 295.132C114.962 290.36 100.043 285.01 85.5552 279.167L85.5664 279.188ZM889.602 111.556C888.185 111.778 886.766 112.002 885.341 112.244C883.334 110.018 881.369 107.738 879.445 105.405C881.113 105.166 882.77 104.957 884.431 104.761C886.114 107.072 887.838 109.337 889.602 111.556ZM897.135 110.489C895.432 110.706 893.724 110.935 892.008 111.188C890.245 108.996 888.52 106.756 886.834 104.47C888.777 104.247 890.712 104.045 892.633 103.872C894.098 106.119 895.599 108.325 897.135 110.489ZM905.463 109.556C903.488 109.742 901.508 109.945 899.512 110.183C897.988 108.059 896.497 105.894 895.041 103.689C897.248 103.52 899.446 103.367 901.635 103.262C902.879 105.392 904.155 107.49 905.463 109.556ZM914.529 108.86C912.309 108.986 910.075 109.144 907.829 109.335C906.527 107.307 905.257 105.245 904.019 103.15C906.333 103.056 908.631 103.003 910.914 102.989C912.135 104.9 913.34 106.857 914.529 108.86ZM923.656 108.554C921.424 108.585 919.176 108.656 916.918 108.754C915.766 106.792 914.6 104.872 913.419 102.995C915.62 103.014 917.806 103.067 919.978 103.156C921.217 104.912 922.443 106.709 923.656 108.55V108.554ZM932.502 108.614C930.402 108.55 928.292 108.513 926.166 108.519C925.012 106.736 923.844 104.991 922.663 103.285C924.729 103.403 926.782 103.554 928.821 103.739C930.056 105.325 931.281 106.95 932.494 108.614H932.502ZM941.065 109.097C939.122 108.944 937.165 108.828 935.198 108.736C934.051 107.127 932.891 105.556 931.719 104.024C933.627 104.227 935.521 104.464 937.403 104.737C938.632 106.15 939.85 107.601 941.057 109.09L941.065 109.097ZM949.306 109.95C947.547 109.725 945.778 109.526 943.999 109.353C942.898 107.958 941.786 106.595 940.665 105.265C942.384 105.558 944.098 105.867 945.8 106.209C946.979 107.422 948.146 108.667 949.298 109.944L949.306 109.95ZM957.139 111.135C955.619 110.863 954.094 110.605 952.557 110.38C951.543 109.225 950.522 108.093 949.491 106.984C950.974 107.318 952.443 107.687 953.908 108.072C954.988 109.064 956.063 110.082 957.131 111.125L957.139 111.135ZM964.474 112.627C963.299 112.355 962.11 112.118 960.923 111.875C960.084 111.017 959.239 110.172 958.388 109.34C959.537 109.684 960.685 110.032 961.822 110.404C962.707 111.126 963.588 111.865 964.466 112.62L964.474 112.627ZM971.069 114.325C970.39 114.135 969.706 113.945 969.023 113.763C968.526 113.309 968.029 112.86 967.53 112.416C968.201 112.668 968.865 112.934 969.533 113.198C970.043 113.565 970.553 113.938 971.064 114.318L971.069 114.325ZM1067.92 204.687C1065.71 204.266 1063.49 203.825 1061.25 203.364C1060.36 202.238 1059.48 201.103 1058.62 199.959C1060.89 200.365 1063.14 200.754 1065.37 201.124C1066.2 202.324 1067.07 203.495 1067.92 204.681L1067.92 204.687ZM1072.22 210.448C1070.14 210.001 1068.05 209.539 1065.95 209.062C1065.06 208.022 1064.18 206.96 1063.31 205.898C1065.44 206.327 1067.56 206.737 1069.67 207.129C1070.5 208.246 1071.37 209.337 1072.21 210.441L1072.22 210.448ZM1076.69 216.013C1074.75 215.554 1072.81 215.08 1070.86 214.591C1069.99 213.643 1069.13 212.675 1068.27 211.71C1070.25 212.149 1072.23 212.573 1074.19 212.979C1075.01 214.002 1075.85 214.999 1076.69 216.007L1076.69 216.013ZM1081.33 221.397C1079.55 220.931 1077.76 220.454 1075.98 219.963C1075.14 219.115 1074.32 218.246 1073.49 217.388C1075.31 217.831 1077.11 218.26 1078.91 218.676C1079.7 219.582 1080.52 220.485 1081.32 221.391L1081.33 221.397ZM1086.12 226.585C1084.51 226.124 1082.9 225.654 1081.3 225.173C1080.52 224.436 1079.76 223.678 1078.99 222.928C1080.61 223.357 1082.23 223.777 1083.85 224.188C1084.6 224.991 1085.35 225.783 1086.11 226.578L1086.12 226.585ZM1091.02 231.561C1089.63 231.123 1088.23 230.677 1086.84 230.222C1086.14 229.611 1085.47 228.976 1084.78 228.354C1086.18 228.76 1087.58 229.157 1088.98 229.545C1089.65 230.217 1090.33 230.885 1091.01 231.555L1091.02 231.561ZM1095.99 236.296C1094.85 235.904 1093.71 235.509 1092.56 235.104C1092 234.64 1091.45 234.156 1090.89 233.687C1092.04 234.045 1093.18 234.392 1094.32 234.738C1094.87 235.258 1095.43 235.775 1095.99 236.29L1095.99 236.296ZM1100.98 240.763C1100.16 240.454 1099.33 240.15 1098.51 239.834C1098.14 239.549 1097.77 239.251 1097.4 238.963C1098.22 239.239 1099.04 239.504 1099.86 239.768C1100.23 240.095 1100.6 240.43 1100.98 240.756L1100.98 240.763ZM1105.92 244.919L1104.7 244.426L1104.44 244.247L1105.61 244.658L1105.92 244.919ZM99.7455 286.94C109.527 290.58 119.467 293.984 129.564 297.15C220.724 325.714 322.827 333.722 408.679 304.144C477.287 280.503 548.155 244.713 617.234 209.826C710.517 162.715 800.529 117.265 877.026 105.776C878.945 108.137 880.908 110.44 882.913 112.685C807.863 126.1 720.671 170.123 630.432 215.693C561.385 250.563 490.554 286.338 422.153 309.906C336.77 339.323 235.14 331.333 144.357 302.888C129.131 298.116 114.222 292.771 99.7423 286.933L99.7455 286.94ZM897.068 120.429C895.955 120.629 894.847 120.814 893.729 121.027C891.471 118.796 889.255 116.507 887.083 114.159C888.455 113.934 889.817 113.726 891.178 113.515C893.101 115.875 895.065 118.179 897.068 120.429ZM903.758 119.303C902.343 119.523 900.929 119.747 899.506 119.99C897.498 117.763 895.531 115.482 893.605 113.15C895.271 112.913 896.928 112.704 898.581 112.506C900.27 114.821 901.997 117.089 903.763 119.309L903.758 119.303ZM911.29 118.236C909.587 118.453 907.88 118.682 906.163 118.934C904.402 116.74 902.678 114.501 900.99 112.216C902.933 111.994 904.868 111.791 906.79 111.619C908.257 113.872 909.758 116.08 911.295 118.242L911.29 118.236ZM919.618 117.302C917.641 117.49 915.661 117.693 913.667 117.932C912.143 115.805 910.653 113.64 909.198 111.437C911.404 111.276 913.604 111.115 915.792 111.011C917.033 113.148 918.31 115.247 919.623 117.309L919.618 117.302ZM928.684 116.607C926.465 116.732 924.232 116.891 921.986 117.082C920.684 115.054 919.414 112.992 918.175 110.896C920.489 110.803 922.787 110.749 925.069 110.735C926.293 112.651 927.5 114.61 928.689 116.613L928.684 116.607ZM937.811 116.301C935.579 116.332 933.332 116.402 931.074 116.501C929.92 114.539 928.754 112.62 927.574 110.742C929.775 110.758 931.961 110.812 934.133 110.903C935.378 112.66 936.606 114.462 937.816 116.308L937.811 116.301ZM946.657 116.361C944.557 116.296 942.447 116.259 940.319 116.266C939.165 114.484 937.998 112.74 936.818 111.032C938.883 111.147 940.935 111.299 942.976 111.485C944.215 113.077 945.441 114.704 946.654 116.367L946.657 116.361ZM955.222 116.843C953.277 116.692 951.32 116.576 949.354 116.485C948.208 114.875 947.049 113.305 945.876 111.773C947.784 111.975 949.679 112.212 951.56 112.485C952.792 113.902 954.011 115.355 955.218 116.842L955.222 116.843ZM963.459 117.698C961.7 117.473 959.931 117.274 958.152 117.101C957.051 115.706 955.939 114.343 954.818 113.013C956.537 113.304 958.249 113.613 959.949 113.958C961.131 115.173 962.3 116.42 963.456 117.697L963.459 117.698ZM971.292 118.881C969.772 118.611 968.248 118.353 966.712 118.128C965.696 116.973 964.674 115.841 963.646 114.732C965.129 115.067 966.599 115.435 968.064 115.82C969.146 116.817 970.221 117.837 971.289 118.88L971.292 118.881ZM978.631 120.375C977.455 120.103 976.268 119.866 975.081 119.625C974.242 118.766 973.396 117.921 972.545 117.088C973.697 117.434 974.845 117.783 975.984 118.155C976.869 118.881 977.751 119.62 978.628 120.373L978.631 120.375ZM985.225 122.073C984.544 121.881 983.863 121.693 983.181 121.511C982.684 121.057 982.187 120.607 981.685 120.161C982.356 120.413 983.022 120.681 983.688 120.944C984.199 121.316 984.71 121.691 985.22 122.07L985.225 122.073ZM1077.96 206.49C1075.63 206.096 1073.29 205.682 1070.92 205.247C1070.04 204.047 1069.17 202.823 1068.31 201.594C1070.71 201.976 1073.08 202.336 1075.44 202.675C1076.25 203.966 1077.11 205.217 1077.96 206.488L1077.96 206.49ZM1082.08 212.435C1079.87 212.014 1077.65 211.573 1075.41 211.112C1074.52 209.986 1073.64 208.841 1072.77 207.691C1075.03 208.099 1077.29 208.487 1079.52 208.854C1080.35 210.068 1081.22 211.236 1082.08 212.434L1082.08 212.435ZM1086.37 218.189C1084.28 217.744 1082.19 217.282 1080.1 216.804C1079.21 215.766 1078.33 214.711 1077.46 213.644C1079.59 214.073 1081.71 214.484 1083.82 214.875C1084.66 215.999 1085.52 217.089 1086.37 218.189ZM1090.84 223.762C1088.9 223.301 1086.96 222.826 1085.01 222.337C1084.13 221.391 1083.28 220.423 1082.42 219.456C1084.4 219.896 1086.37 220.319 1088.34 220.726C1089.17 221.755 1090.01 222.754 1090.85 223.762H1090.84ZM1095.48 229.145C1093.7 228.68 1091.91 228.201 1090.13 227.71C1089.29 226.863 1088.47 225.992 1087.64 225.134C1089.45 225.576 1091.26 226.005 1093.06 226.422C1093.86 227.331 1094.68 228.238 1095.49 229.145H1095.48ZM1100.26 234.33C1098.66 233.871 1097.05 233.401 1095.45 232.92C1094.67 232.183 1093.91 231.421 1093.13 230.666C1094.76 231.096 1096.38 231.516 1097.99 231.927C1098.75 232.741 1099.51 233.535 1100.27 234.33H1100.26ZM1105.17 239.306C1103.77 238.868 1102.38 238.422 1100.98 237.967C1100.29 237.355 1099.61 236.721 1098.93 236.102C1100.33 236.509 1101.73 236.906 1103.14 237.293C1103.81 237.972 1104.49 238.638 1105.17 239.306H1105.17ZM1110.14 244.043C1109 243.65 1107.85 243.253 1106.71 242.85C1106.15 242.387 1105.6 241.906 1105.04 241.436C1106.19 241.793 1107.33 242.144 1108.47 242.488C1109.03 243.006 1109.59 243.525 1110.15 244.043H1110.14ZM1115.13 248.509C1114.31 248.202 1113.48 247.896 1112.66 247.582C1112.29 247.296 1111.92 246.998 1111.55 246.71C1112.37 246.985 1113.19 247.251 1114.01 247.515C1114.39 247.848 1114.76 248.183 1115.14 248.509H1115.13ZM1120.07 252.667L1118.85 252.174L1118.6 251.996L1119.76 252.406L1120.07 252.667ZM113.863 294.675C123.655 298.323 133.605 301.731 143.712 304.899C234.873 333.463 336.976 341.47 422.827 311.89C491.437 288.251 562.303 252.462 631.383 217.573C722.014 171.802 809.558 127.601 884.619 114.582C886.785 116.955 888.997 119.268 891.254 121.524C817.531 136.109 732.502 179.041 644.581 223.445C575.533 258.316 504.702 294.089 436.302 317.657C350.919 347.074 249.288 339.085 158.506 310.64C143.281 305.876 128.361 300.516 113.871 294.673L113.863 294.675ZM2.67466 233.422L2.83549 233.549L1.4668 233.002L1.39282 232.947L2.67466 233.422ZM905.431 129.274L903.102 129.741C900.575 127.525 898.093 125.244 895.656 122.897C896.703 122.705 897.746 122.514 898.795 122.334C900.96 124.706 903.172 127.019 905.431 129.274ZM911.237 128.182C910.129 128.379 909.027 128.566 907.914 128.776C905.653 126.543 903.436 124.254 901.264 121.909C902.631 121.685 903.99 121.479 905.349 121.274C907.266 123.629 909.227 125.932 911.232 128.186L911.237 128.182ZM917.926 127.064C916.512 127.283 915.099 127.508 913.677 127.75C911.669 125.522 909.702 123.242 907.777 120.909C909.444 120.673 911.097 120.462 912.749 120.265C914.433 122.577 916.157 124.841 917.921 127.059L917.926 127.064ZM925.459 125.995C923.755 126.214 922.047 126.443 920.331 126.694C918.568 124.502 916.843 122.262 915.157 119.976C917.101 119.754 919.036 119.551 920.959 119.378C922.42 121.625 923.918 123.831 925.455 125.995H925.459ZM933.786 125.062C931.811 125.25 929.831 125.453 927.835 125.691C926.31 123.564 924.82 121.399 923.365 119.197C925.572 119.036 927.774 118.875 929.96 118.77C931.201 120.903 932.475 123 933.781 125.062H933.786ZM942.854 124.366C940.633 124.492 938.4 124.65 936.155 124.841C934.853 122.813 933.583 120.751 932.345 118.656C934.658 118.562 936.955 118.509 939.238 118.495C940.456 120.408 941.66 122.365 942.849 124.366H942.854ZM951.979 124.061C949.748 124.091 947.502 124.162 945.244 124.26C944.092 122.299 942.925 120.379 941.744 118.501C943.944 118.517 946.13 118.571 948.303 118.662C949.541 120.42 950.765 122.219 951.974 124.061H951.979ZM960.825 124.122C958.726 124.056 956.616 124.019 954.488 124.025C953.333 122.244 952.165 120.499 950.984 118.791C953.051 118.908 955.104 119.059 957.144 119.245C958.373 120.832 959.597 122.457 960.814 124.122H960.825ZM969.388 124.597C967.447 124.444 965.489 124.329 963.522 124.238C962.375 122.628 961.215 121.057 960.043 119.523C961.951 119.727 963.845 119.965 965.726 120.236C966.952 121.655 968.169 123.108 969.377 124.597H969.388ZM977.629 125.45C975.869 125.225 974.1 125.026 972.321 124.852C971.221 123.457 970.11 122.095 968.987 120.764C970.707 121.056 972.419 121.365 974.121 121.709C975.291 122.926 976.456 124.173 977.618 125.45H977.629ZM985.463 126.634C983.943 126.362 982.42 126.103 980.883 125.879C979.867 124.725 978.845 123.593 977.815 122.483C979.3 122.82 980.77 123.188 982.237 123.571C983.312 124.569 984.384 125.59 985.452 126.634H985.463ZM992.797 128.125C991.621 127.854 990.433 127.618 989.248 127.376C988.407 126.518 987.561 125.672 986.711 124.84C987.861 125.184 989.008 125.533 990.147 125.905C991.027 126.631 991.907 127.371 992.786 128.125H992.797ZM999.391 129.823C998.713 129.63 998.032 129.444 997.35 129.262C996.854 128.809 996.356 128.359 995.856 127.914C996.525 128.166 997.188 128.432 997.854 128.694C998.36 129.067 998.868 129.443 999.378 129.823H999.391ZM1088.2 208.107C1085.76 207.748 1083.3 207.366 1080.81 206.962C1079.94 205.684 1079.09 204.386 1078.24 203.07C1080.77 203.422 1083.26 203.751 1085.73 204.056C1086.53 205.424 1087.36 206.764 1088.18 208.107H1088.2ZM1092.13 214.24C1089.79 213.847 1087.44 213.436 1085.08 213.007C1084.19 211.8 1083.32 210.57 1082.46 209.337C1084.85 209.72 1087.23 210.081 1089.58 210.42C1090.41 211.706 1091.27 212.97 1092.11 214.24H1092.13ZM1096.25 220.185C1094.04 219.762 1091.81 219.321 1089.58 218.861C1088.68 217.734 1087.81 216.591 1086.93 215.444C1089.2 215.85 1091.45 216.238 1093.69 216.607C1094.52 217.818 1095.37 218.999 1096.23 220.185H1096.25ZM1100.55 225.942C1098.46 225.498 1096.37 225.036 1094.27 224.557C1093.39 223.518 1092.51 222.464 1091.64 221.399C1093.77 221.828 1095.89 222.238 1098 222.63C1098.82 223.752 1099.68 224.843 1100.53 225.942H1100.55ZM1105.01 231.516C1103.07 231.058 1101.12 230.584 1099.18 230.093C1098.3 229.145 1097.45 228.176 1096.59 227.211C1098.57 227.651 1100.54 228.074 1102.5 228.481C1103.33 229.506 1104.17 230.509 1105.01 231.516ZM1109.65 236.898C1107.86 236.433 1106.08 235.955 1104.29 235.464C1103.46 234.616 1102.63 233.745 1101.8 232.881C1103.62 233.322 1105.43 233.751 1107.23 234.169C1108.02 235.086 1108.83 235.991 1109.65 236.897V236.898ZM1114.43 242.083C1112.83 241.623 1111.22 241.153 1109.62 240.673C1108.84 239.936 1108.07 239.177 1107.3 238.427C1108.92 238.857 1110.54 239.277 1112.16 239.688C1112.91 240.494 1113.67 241.288 1114.43 242.081V242.083ZM1119.33 247.061C1117.94 246.623 1116.54 246.176 1115.15 245.72C1114.46 245.11 1113.78 244.478 1113.1 243.858C1114.5 244.266 1115.9 244.663 1117.3 245.049C1117.97 245.727 1118.65 246.391 1119.34 247.059L1119.33 247.061ZM1124.31 251.798C1123.17 251.405 1122.02 251.011 1120.88 250.605C1120.32 250.141 1119.77 249.66 1119.21 249.19C1120.35 249.548 1121.49 249.898 1122.64 250.243C1123.19 250.763 1123.75 251.281 1124.31 251.796V251.798ZM1129.3 256.264C1128.47 255.955 1127.65 255.652 1126.82 255.337C1126.45 255.05 1126.09 254.754 1125.72 254.465C1126.53 254.741 1127.35 255.005 1128.17 255.269C1128.55 255.602 1128.92 255.936 1129.3 256.262L1129.3 256.264ZM1134.23 260.421L1133.01 259.929L1132.76 259.752L1133.93 260.162L1134.23 260.421ZM128.018 302.43C137.813 306.078 147.766 309.487 157.877 312.658C249.037 341.222 351.141 349.229 436.992 319.651C505.601 296.011 576.468 260.22 645.547 225.334C733.909 180.701 819.337 137.553 893.122 123.357C895.548 125.718 898.02 128.02 900.538 130.264C827.956 145.737 744.731 187.767 658.748 231.193C589.701 266.063 518.87 301.837 450.469 325.405C365.086 354.822 263.456 346.833 172.674 318.388C157.438 313.619 142.514 308.266 128.022 302.422L128.018 302.43ZM16.8441 241.173L17.0049 241.302L15.6346 240.755L15.5606 240.7L16.8441 241.173ZM11.038 236.43L11.7328 237.013L9.5953 236.195L8.92463 235.682L11.038 236.43ZM5.37665 231.59L6.52178 232.58L3.6879 231.547L2.56207 230.641L5.37665 231.59ZM20.688 240.331L17.8541 239.298L20.688 240.331ZM17.8541 239.298L16.7283 238.392L19.5461 239.342M914.714 138.018C914.299 138.107 913.881 138.203 913.465 138.295C910.656 136.115 907.894 133.861 905.178 131.535C905.885 131.39 906.592 131.242 907.295 131.107C909.718 133.476 912.189 135.78 914.708 138.018H914.714ZM919.595 137.028L917.286 137.49C914.755 135.273 912.271 132.992 909.833 130.647C910.875 130.457 911.924 130.267 912.958 130.087C915.124 132.459 917.333 134.773 919.584 137.028H919.595ZM925.397 135.935C924.29 136.133 923.189 136.32 922.076 136.531C919.816 134.3 917.6 132.01 915.425 129.662C916.792 129.438 918.15 129.232 919.509 129.027C921.425 131.382 923.385 133.684 925.39 135.935H925.397ZM932.087 134.809C930.674 135.029 929.258 135.253 927.835 135.496C925.828 133.269 923.861 130.988 921.934 128.656C923.602 128.419 925.258 128.21 926.91 128.012C928.594 130.327 930.317 132.595 932.081 134.815L932.087 134.809ZM939.619 133.742C937.914 133.956 936.205 134.19 934.49 134.442C932.728 132.249 931.004 130.009 929.319 127.722C931.261 127.5 933.196 127.297 935.119 127.127C936.578 129.378 938.076 131.585 939.613 133.748L939.619 133.742ZM947.949 132.808C945.972 132.997 943.991 133.199 941.998 133.438C940.473 131.311 938.984 129.146 937.53 126.943C939.738 126.773 941.937 126.621 944.124 126.517C945.36 128.654 946.633 130.753 947.942 132.815L947.949 132.808ZM957.015 132.113C954.795 132.238 952.563 132.399 950.316 132.596C949.017 130.568 947.747 128.506 946.506 126.41C948.819 126.317 951.117 126.263 953.399 126.249C954.617 128.162 955.82 130.118 957.008 132.119L957.015 132.113ZM966.142 131.807C963.911 131.838 961.663 131.909 959.405 132.007C958.253 130.045 957.087 128.126 955.905 126.248C958.107 126.265 960.293 126.319 962.466 126.409C963.702 128.167 964.925 129.969 966.136 131.814L966.142 131.807ZM974.988 131.867C972.889 131.802 970.777 131.765 968.651 131.772C967.497 129.99 966.33 128.246 965.148 126.538C967.216 126.654 969.268 126.806 971.307 126.991C972.537 128.583 973.76 130.21 974.974 131.873L974.988 131.867ZM983.552 132.35C981.608 132.197 979.651 132.081 977.685 131.989C976.537 130.379 975.377 128.809 974.206 127.278C976.114 127.48 978.008 127.717 979.89 127.989C981.115 129.408 982.331 130.861 983.538 132.35H983.552ZM991.794 133.203C990.032 132.977 988.263 132.778 986.486 132.605C985.386 131.21 984.275 129.848 983.154 128.517C984.873 128.809 986.586 129.119 988.287 129.462C989.456 130.681 990.62 131.928 991.779 133.203H991.794ZM999.625 134.387C998.105 134.115 996.582 133.858 995.044 133.632C994.029 132.478 993.006 131.346 991.977 130.236C993.46 130.571 994.93 130.941 996.395 131.324C997.471 132.322 998.543 133.343 999.61 134.387H999.625ZM1006.96 135.879C1005.78 135.607 1004.6 135.371 1003.41 135.129C1002.57 134.271 1001.72 133.425 1000.87 132.593C1002.02 132.937 1003.17 133.285 1004.31 133.656C1005.19 134.384 1006.07 135.125 1006.95 135.879H1006.96ZM1013.55 137.577C1012.87 137.385 1012.19 137.198 1011.51 137.015C1011.01 136.562 1010.51 136.113 1010.01 135.668C1010.68 135.921 1011.35 136.187 1012.02 136.451C1012.52 136.822 1013.03 137.197 1013.54 137.577H1013.55ZM1098.51 209.522C1096.01 209.2 1093.47 208.858 1090.91 208.495C1090.05 207.143 1089.23 205.759 1088.4 204.373C1090.94 204.676 1093.44 204.956 1095.91 205.214C1096.78 206.627 1097.64 208.085 1098.5 209.53L1098.51 209.522ZM1102.35 215.852C1099.91 215.494 1097.45 215.112 1094.97 214.706C1094.09 213.419 1093.24 212.112 1092.4 210.802C1094.92 211.153 1097.42 211.481 1099.89 211.787C1100.68 213.168 1101.51 214.513 1102.34 215.86L1102.35 215.852ZM1106.28 221.985C1103.95 221.591 1101.61 221.177 1099.25 220.742C1098.36 219.537 1097.49 218.307 1096.62 217.077C1099.02 217.459 1101.4 217.82 1103.75 218.159C1104.57 219.459 1105.43 220.723 1106.27 221.993L1106.28 221.985ZM1110.4 227.929C1108.19 227.507 1105.97 227.066 1103.73 226.606C1102.84 225.479 1101.97 224.336 1101.09 223.189C1103.36 223.597 1105.61 223.986 1107.85 224.354C1108.68 225.572 1109.54 226.752 1110.39 227.937L1110.4 227.929ZM1114.71 233.689C1112.62 233.245 1110.53 232.783 1108.43 232.303C1107.54 231.264 1106.66 230.211 1105.8 229.144C1107.93 229.573 1110.05 229.983 1112.16 230.373C1112.98 231.503 1113.84 232.598 1114.7 233.697L1114.71 233.689ZM1119.18 239.26C1117.24 238.801 1115.29 238.327 1113.34 237.837C1112.47 236.889 1111.61 235.918 1110.76 234.951C1112.74 235.392 1114.71 235.816 1116.67 236.222C1117.49 237.257 1118.33 238.262 1119.17 239.268L1119.18 239.26ZM1123.81 244.64C1122.03 244.177 1120.25 243.699 1118.46 243.206C1117.62 242.358 1116.8 241.49 1115.98 240.631C1117.79 241.074 1119.6 241.503 1121.4 241.918C1122.18 242.839 1122.99 243.748 1123.8 244.648L1123.81 244.64ZM1128.6 249.828C1126.99 249.369 1125.39 248.899 1123.79 248.416C1123.01 247.68 1122.24 246.921 1121.47 246.171C1123.1 246.6 1124.72 247.02 1126.33 247.431C1127.07 248.255 1127.83 249.042 1128.59 249.836L1128.6 249.828ZM1133.5 254.804C1132.11 254.366 1130.72 253.919 1129.32 253.463C1128.63 252.853 1127.95 252.221 1127.27 251.603C1128.67 252.008 1130.07 252.405 1131.47 252.792C1132.13 253.478 1132.81 254.144 1133.49 254.812L1133.5 254.804ZM1138.48 259.543C1137.34 259.15 1136.19 258.752 1135.05 258.348C1134.48 257.888 1133.94 257.404 1133.38 256.935C1134.52 257.293 1135.67 257.64 1136.81 257.986C1137.36 258.513 1137.91 259.035 1138.48 259.551L1138.48 259.543ZM1143.47 264.007C1142.64 263.7 1141.82 263.396 1141 263.08C1140.62 262.795 1140.26 262.499 1139.89 262.21C1140.71 262.485 1141.53 262.75 1142.34 263.014C1142.71 263.357 1143.08 263.689 1143.46 264.015L1143.47 264.007ZM1148.41 268.165L1147.19 267.672L1146.94 267.498L1148.1 267.907L1148.41 268.165ZM31.0054 248.931L31.1662 249.057L29.7992 248.509L29.7252 248.456L31.0054 248.931ZM25.2042 244.185L25.8974 244.766L23.7615 243.95L23.0908 243.436L25.2042 244.185ZM14.0391 234.413L15.5107 235.749C14.3624 235.354 13.2167 234.957 12.0737 234.557L10.5893 233.306C11.7376 233.678 12.8876 234.047 14.0391 234.413ZM8.67695 229.376C9.24951 229.926 9.82369 230.48 10.4027 231.029C9.07635 230.599 7.75216 230.162 6.43011 229.717C5.83717 229.197 5.24745 228.676 4.66095 228.154C5.998 228.565 7.33667 228.972 8.67695 229.376ZM924.995 146.632L924.901 146.652C921.792 144.52 918.729 142.311 915.711 140.025L916.752 139.814C919.453 142.158 922.201 144.43 924.995 146.632ZM928.866 145.771C928.461 145.858 928.05 145.953 927.644 146.043C924.835 143.863 922.072 141.61 919.354 139.283C920.052 139.142 920.753 138.994 921.445 138.86C923.873 141.229 926.346 143.533 928.866 145.771ZM933.747 144.781L931.438 145.246C928.909 143.029 926.426 140.747 923.986 138.403C925.029 138.213 926.077 138.023 927.11 137.843C929.277 140.214 931.489 142.527 933.747 144.781ZM939.552 143.688C938.444 143.886 937.339 144.073 936.226 144.284C933.967 142.053 931.75 139.764 929.577 137.416C930.944 137.191 932.303 136.985 933.662 136.772C935.582 139.134 937.546 141.439 939.552 143.688ZM946.234 142.57C944.822 142.79 943.407 143.014 941.987 143.256C939.978 141.03 938.011 138.75 936.086 136.415C937.752 136.178 939.409 135.969 941.062 135.771C942.746 138.084 944.471 140.35 946.234 142.57ZM953.771 141.501C952.067 141.716 950.358 141.949 948.644 142.201C946.881 140.008 945.157 137.768 943.471 135.482C945.414 135.261 947.35 135.058 949.272 134.886C950.735 137.133 952.234 139.338 953.771 141.501ZM962.102 140.568C960.127 140.756 958.144 140.959 956.151 141.197C954.627 139.072 953.137 136.908 951.682 134.703C953.89 134.534 956.089 134.381 958.276 134.276C959.517 136.409 960.793 138.506 962.102 140.568ZM971.168 139.872C968.949 139.998 966.716 140.159 964.47 140.355C963.17 138.327 961.9 136.266 960.659 134.171C962.972 134.076 965.27 134.022 967.554 134.01C968.776 135.916 969.98 137.87 971.168 139.872ZM980.296 139.567C978.063 139.597 975.816 139.668 973.558 139.766C972.407 137.805 971.24 135.885 970.059 134.007C972.261 134.023 974.448 134.077 976.619 134.168C977.859 135.926 979.085 137.725 980.296 139.567ZM989.141 139.628C987.042 139.562 984.932 139.525 982.805 139.533C981.65 137.749 980.482 136.004 979.302 134.297C981.369 134.414 983.422 134.565 985.46 134.751C986.696 136.338 987.921 137.963 989.133 139.628H989.141ZM997.706 140.103C995.763 139.95 993.804 139.834 991.839 139.742C990.691 138.132 989.532 136.562 988.361 135.031C990.269 135.234 992.163 135.471 994.045 135.742C995.274 137.161 996.491 138.612 997.698 140.096L997.706 140.103ZM1005.94 140.956C1004.18 140.73 1002.41 140.531 1000.64 140.358C999.535 138.963 998.424 137.601 997.302 136.27C999.021 136.562 1000.73 136.871 1002.43 137.215C1003.61 138.432 1004.78 139.679 1005.94 140.956H1005.94ZM1013.78 142.139C1012.26 141.868 1010.73 141.611 1009.2 141.385C1008.18 140.231 1007.16 139.099 1006.13 137.989C1007.61 138.326 1009.08 138.694 1010.55 139.077C1011.63 140.078 1012.7 141.099 1013.77 142.139H1013.78ZM1021.12 143.632C1019.94 143.36 1018.75 143.124 1017.57 142.882C1016.73 142.024 1015.88 141.178 1015.03 140.346C1016.18 140.692 1017.33 141.041 1018.47 141.413C1019.35 142.139 1020.23 142.881 1021.11 143.637L1021.12 143.632ZM1027.71 145.33C1027.03 145.138 1026.35 144.951 1025.67 144.768C1025.17 144.315 1024.67 143.865 1024.17 143.42C1024.84 143.671 1025.51 143.938 1026.17 144.202C1026.68 144.576 1027.19 144.952 1027.7 145.33H1027.71ZM1108.61 210.715C1106.17 210.451 1103.69 210.167 1101.19 209.862C1100.32 208.375 1099.43 206.929 1098.54 205.49C1100.93 205.73 1103.29 205.949 1105.6 206.149C1106.61 207.634 1107.6 209.178 1108.6 210.715H1108.61ZM1112.68 217.282C1110.17 216.96 1107.63 216.618 1105.07 216.255C1104.21 214.901 1103.39 213.509 1102.56 212.123C1105.1 212.426 1107.6 212.706 1110.07 212.963C1110.94 214.37 1111.8 215.83 1112.66 217.282H1112.68ZM1116.51 223.612C1114.08 223.251 1111.62 222.869 1109.13 222.466C1108.26 221.178 1107.41 219.875 1106.56 218.564C1109.09 218.917 1111.58 219.246 1114.05 219.551C1114.84 220.922 1115.67 222.266 1116.5 223.612H1116.51ZM1120.45 229.744C1118.12 229.35 1115.77 228.936 1113.41 228.502C1112.52 227.299 1111.66 226.068 1110.79 224.838C1113.19 225.221 1115.56 225.582 1117.92 225.922C1118.73 227.212 1119.59 228.476 1120.43 229.746L1120.45 229.744ZM1124.57 235.691C1122.36 235.27 1120.14 234.829 1117.9 234.368C1117.01 233.242 1116.13 232.097 1115.26 230.95C1117.52 231.357 1119.77 231.745 1122.01 232.113C1122.84 233.324 1123.7 234.505 1124.55 235.691H1124.57ZM1128.87 241.45C1126.79 241.006 1124.7 240.544 1122.6 240.064C1121.71 239.025 1120.83 237.972 1119.96 236.903C1122.09 237.332 1124.21 237.743 1126.32 238.135C1127.14 239.255 1128 240.351 1128.86 241.45H1128.87ZM1133.34 247.019C1131.4 246.561 1129.46 246.087 1127.51 245.596C1126.63 244.648 1125.78 243.679 1124.92 242.714C1126.9 243.155 1128.88 243.578 1130.84 243.985C1131.65 245.01 1132.49 246.013 1133.33 247.019H1133.34ZM1137.98 252.401C1136.2 251.938 1134.41 251.46 1132.63 250.967C1131.79 250.119 1130.97 249.25 1130.14 248.392C1131.95 248.835 1133.76 249.264 1135.56 249.68C1136.34 250.594 1137.15 251.497 1137.96 252.401H1137.98ZM1142.76 257.589C1141.15 257.13 1139.55 256.66 1137.95 256.177C1137.17 255.442 1136.41 254.682 1135.64 253.932C1137.26 254.361 1138.88 254.781 1140.5 255.192C1141.23 256 1141.99 256.795 1142.75 257.59L1142.76 257.589ZM1147.67 262.568C1146.28 262.131 1144.88 261.684 1143.49 261.228C1142.79 260.618 1142.12 259.984 1141.43 259.364C1142.84 259.772 1144.24 260.169 1145.64 260.555C1146.29 261.233 1146.97 261.901 1147.66 262.568H1147.67ZM1152.65 267.304C1151.5 266.911 1150.36 266.513 1149.21 266.111C1148.65 265.649 1148.1 265.165 1147.55 264.698C1148.69 265.055 1149.83 265.401 1150.97 265.747C1151.52 266.271 1152.07 266.79 1152.63 267.304H1152.65ZM1157.63 271.768C1156.81 271.461 1155.98 271.157 1155.16 270.841C1154.79 270.556 1154.42 270.262 1154.05 269.974C1154.87 270.249 1155.69 270.513 1156.51 270.779C1156.87 271.11 1157.24 271.443 1157.62 271.768H1157.63ZM1162.57 275.924L1161.35 275.433L1161.1 275.256L1162.26 275.667L1162.57 275.924ZM45.1619 256.681L45.3228 256.808L43.9541 256.261L43.8785 256.206L45.1619 256.681ZM39.3719 251.936L40.0635 252.519L37.9277 251.701L37.2538 251.191L39.3719 251.936ZM33.7074 247.098C34.0838 247.42 34.4698 247.753 34.8493 248.081L32.0154 247.05L30.8896 246.147L33.7074 247.098ZM28.2085 242.166L29.6769 243.501C28.5286 243.106 27.3824 242.708 26.2383 242.308L24.757 241.059C25.9043 241.432 27.0527 241.801 28.2021 242.166H28.2085ZM22.8447 237.129C23.4157 237.679 23.9867 238.231 24.5673 238.78C23.242 238.351 21.9178 237.914 20.5947 237.47C20.0028 236.95 19.4131 236.429 18.8255 235.907C20.1594 236.319 21.497 236.726 22.8383 237.129H22.8447ZM17.6321 231.999C18.2755 232.643 18.9075 233.287 19.5621 233.93C18.6776 233.658 17.793 233.388 16.9116 233.111L15.091 232.537C14.4251 231.925 13.7689 231.309 13.1127 230.694C14.6246 231.135 16.131 231.57 17.6321 231.999ZM12.5948 226.752C13.28 227.487 13.9732 228.221 14.6744 228.955C13.0307 228.479 11.3881 227.996 9.74649 227.507C9.02113 226.807 8.30864 226.105 7.59615 225.403C9.26345 225.856 10.9318 226.304 12.6013 226.747L12.5948 226.752ZM7.73125 221.394C8.45393 222.214 9.18464 223.032 9.9234 223.848C8.1328 223.36 6.34701 222.865 4.56605 222.363C3.79834 221.581 3.03921 220.797 2.28866 220.013C4.10393 220.48 5.92027 220.938 7.73768 221.389L7.73125 221.394ZM939.148 154.388L939.085 154.403C935.976 152.271 932.911 150.063 929.892 147.778L930.905 147.572C933.611 149.912 936.36 152.183 939.154 154.384L939.148 154.388ZM943.019 153.529C942.614 153.616 942.202 153.711 941.795 153.801C938.987 151.619 936.225 149.365 933.508 147.041C934.204 146.899 934.905 146.751 935.598 146.618C938.031 148.984 940.507 151.286 943.026 153.524L943.019 153.529ZM947.901 152.539L945.586 153.003C943.058 150.785 940.575 148.503 938.136 146.158C939.18 145.969 940.227 145.778 941.263 145.597C943.435 147.968 945.65 150.28 947.907 152.534L947.901 152.539ZM953.691 151.448C952.586 151.646 951.482 151.833 950.371 152.043C948.113 149.813 945.897 147.523 943.724 145.174C945.089 144.949 946.448 144.743 947.806 144.54C949.731 146.893 951.696 149.194 953.7 151.443L953.691 151.448ZM960.384 150.321C958.971 150.542 957.555 150.765 956.134 151.008C954.126 148.781 952.16 146.5 950.236 144.167C951.902 143.93 953.557 143.721 955.21 143.523C956.902 145.836 958.63 148.103 960.394 150.323L960.384 150.321ZM967.923 149.253C966.219 149.471 964.51 149.7 962.794 149.953C961.031 147.76 959.307 145.52 957.623 143.233C959.564 143.013 961.501 142.81 963.422 142.637C964.893 144.885 966.396 147.091 967.932 149.254L967.923 149.253ZM976.252 148.319C974.277 148.507 972.296 148.71 970.301 148.948C968.777 146.824 967.287 144.659 965.832 142.452C968.038 142.291 970.237 142.13 972.426 142.027C973.674 144.162 974.953 146.259 976.262 148.321L976.252 148.319ZM985.318 147.624C983.099 147.749 980.866 147.908 978.62 148.099C977.32 146.071 976.05 144.009 974.81 141.913C977.123 141.82 979.422 141.766 981.704 141.752C982.932 143.667 984.14 145.624 985.328 147.625L985.318 147.624ZM994.446 147.318C992.213 147.349 989.966 147.419 987.708 147.517C986.557 145.556 985.391 143.636 984.21 141.759C986.41 141.776 988.597 141.83 990.769 141.92C992.017 143.676 993.246 145.476 994.455 147.32L994.446 147.318ZM1003.29 147.378C1001.19 147.315 999.081 147.276 996.953 147.283C995.799 145.501 994.632 143.757 993.45 142.048C995.515 142.165 997.568 142.317 999.61 142.504C1000.85 144.09 1002.08 145.715 1003.29 147.379L1003.29 147.378ZM1011.85 147.86C1009.91 147.707 1007.95 147.593 1005.99 147.501C1004.84 145.892 1003.68 144.321 1002.51 142.789C1004.42 142.992 1006.31 143.229 1008.19 143.5C1009.43 144.915 1010.65 146.367 1011.86 147.855L1011.85 147.86ZM1020.09 148.713C1018.33 148.488 1016.57 148.289 1014.79 148.116C1013.69 146.721 1012.57 145.359 1011.45 144.028C1013.17 144.319 1014.88 144.63 1016.59 144.973C1017.77 146.186 1018.94 147.432 1020.1 148.709L1020.09 148.713ZM1027.93 149.898C1026.41 149.626 1024.88 149.367 1023.35 149.143C1022.33 147.989 1021.31 146.857 1020.28 145.747C1021.76 146.082 1023.24 146.452 1024.7 146.835C1025.79 147.83 1026.86 148.849 1027.93 149.893L1027.93 149.898ZM1035.26 151.388C1034.09 151.118 1032.9 150.881 1031.71 150.64C1030.87 149.782 1030.03 148.936 1029.18 148.103C1030.33 148.448 1031.47 148.797 1032.61 149.169C1033.5 149.892 1034.39 150.63 1035.27 151.384L1035.26 151.388ZM1041.86 153.086C1041.18 152.894 1040.5 152.708 1039.82 152.526C1039.32 152.072 1038.82 151.623 1038.32 151.178C1038.99 151.429 1039.65 151.696 1040.32 151.957C1040.83 152.326 1041.34 152.701 1041.85 153.082L1041.86 153.086ZM1118.16 211.665C1115.9 211.462 1113.62 211.242 1111.31 211.006C1110.31 209.429 1109.3 207.895 1108.28 206.382C1110.44 206.559 1112.57 206.72 1114.66 206.865C1115.84 208.425 1117 210.034 1118.15 211.66L1118.16 211.665ZM1122.76 218.471C1120.31 218.209 1117.84 217.925 1115.33 217.618C1114.46 216.128 1113.57 214.679 1112.68 213.239C1115.07 213.478 1117.43 213.697 1119.74 213.897C1120.76 215.378 1121.75 216.924 1122.75 218.466L1122.76 218.471ZM1126.82 225.038C1124.32 224.716 1121.78 224.374 1119.22 224.011C1118.36 222.659 1117.54 221.275 1116.71 219.881C1119.24 220.185 1121.75 220.465 1124.22 220.723C1125.1 222.123 1125.96 223.581 1126.82 225.033L1126.82 225.038ZM1130.66 231.368C1128.22 231.008 1125.76 230.626 1123.28 230.222C1122.41 228.935 1121.56 227.632 1120.71 226.324C1123.23 226.675 1125.73 227.003 1128.2 227.309C1129 228.675 1129.83 230.019 1130.66 231.363L1130.66 231.368ZM1134.6 237.504C1132.26 237.11 1129.92 236.696 1127.56 236.261C1126.67 235.055 1125.8 233.827 1124.93 232.596C1127.33 232.978 1129.71 233.339 1132.06 233.678C1132.89 234.967 1133.74 236.229 1134.59 237.499L1134.6 237.504ZM1138.72 243.449C1136.51 243.027 1134.28 242.586 1132.05 242.124C1131.15 240.998 1130.28 239.855 1129.4 238.706C1131.67 239.115 1133.92 239.503 1136.16 239.871C1137 241.078 1137.86 242.258 1138.71 243.444L1138.72 243.449ZM1143.02 249.206C1140.93 248.762 1138.84 248.3 1136.74 247.819C1135.85 246.782 1134.98 245.727 1134.11 244.663C1136.24 245.092 1138.36 245.502 1140.47 245.892C1141.3 247.009 1142.16 248.104 1143.01 249.201L1143.02 249.206ZM1147.49 254.777C1145.55 254.319 1143.6 253.844 1141.65 253.354C1140.78 252.406 1139.93 251.439 1139.07 250.473C1141.05 250.912 1143.02 251.336 1144.99 251.745C1145.81 252.762 1146.65 253.766 1147.48 254.772L1147.49 254.777ZM1152.13 260.159C1150.34 259.695 1148.56 259.217 1146.77 258.725C1145.93 257.877 1145.11 257.009 1144.29 256.15C1146.1 256.593 1147.91 257.022 1149.71 257.437C1150.51 258.345 1151.32 259.25 1152.12 260.154L1152.13 260.159ZM1156.91 265.35C1155.3 264.889 1153.7 264.419 1152.1 263.938C1151.32 263.201 1150.56 262.443 1149.79 261.685C1151.41 262.114 1153.03 262.534 1154.64 262.945C1155.39 263.755 1156.15 264.55 1156.91 265.345L1156.91 265.35ZM1161.82 270.326C1160.42 269.888 1159.03 269.442 1157.64 268.986C1156.94 268.376 1156.27 267.743 1155.58 267.125C1156.99 267.531 1158.39 267.927 1159.79 268.314C1160.46 268.987 1161.14 269.662 1161.82 270.321L1161.82 270.326ZM1166.79 275.061C1165.65 274.669 1164.5 274.271 1163.36 273.867C1162.8 273.407 1162.25 272.924 1161.7 272.457C1162.84 272.815 1163.98 273.162 1165.12 273.508C1165.68 274.023 1166.23 274.542 1166.78 275.057L1166.79 275.061ZM1171.78 279.525C1170.96 279.217 1170.13 278.911 1169.31 278.598C1168.94 278.313 1168.57 278.018 1168.2 277.73C1169.02 278.005 1169.84 278.271 1170.66 278.535C1171.03 278.861 1171.4 279.195 1171.77 279.52L1171.78 279.525ZM1176.72 283.684L1175.5 283.191L1175.25 283.014L1176.41 283.424L1176.72 283.684ZM1112.93 204.623C1110.9 204.473 1108.84 204.309 1106.75 204.132C1097.74 191.114 1087.94 180.321 1077.41 171.525C1090.24 179.851 1102.11 190.781 1112.92 204.618L1112.93 204.623ZM1190.57 291.181L1190.88 291.438L1189.66 290.944L1189.41 290.77L1190.57 291.181ZM1184.82 286.291C1185.19 286.613 1185.56 286.954 1185.94 287.279C1185.12 286.972 1184.29 286.666 1183.47 286.352C1183.1 286.067 1182.73 285.77 1182.36 285.481C1183.18 285.757 1183.99 286.017 1184.82 286.286L1184.82 286.291ZM1179.28 281.25C1179.83 281.772 1180.39 282.289 1180.95 282.802C1179.8 282.409 1178.66 282.015 1177.52 281.609C1176.96 281.149 1176.41 280.666 1175.85 280.201C1176.99 280.56 1178.13 280.91 1179.28 281.25ZM1173.94 276.059C1174.62 276.737 1175.3 277.403 1175.98 278.07C1174.58 277.632 1173.19 277.185 1171.79 276.729C1171.1 276.119 1170.43 275.488 1169.74 274.868C1171.15 275.278 1172.55 275.677 1173.94 276.064V276.059ZM1168.8 270.698C1169.55 271.503 1170.31 272.299 1171.07 273.093C1169.47 272.634 1167.87 272.163 1166.26 271.681C1165.48 270.946 1164.72 270.186 1163.95 269.438C1165.57 269.872 1167.19 270.294 1168.8 270.703V270.698ZM1163.87 265.173C1164.67 266.096 1165.48 267.001 1166.28 267.909C1164.5 267.443 1162.71 266.965 1160.93 266.475C1160.09 265.627 1159.27 264.756 1158.44 263.891C1160.26 264.335 1162.07 264.763 1163.87 265.177V265.173ZM1159.14 259.486C1159.97 260.511 1160.81 261.514 1161.65 262.52C1159.71 262.062 1157.76 261.588 1155.81 261.097C1154.94 260.149 1154.08 259.182 1153.23 258.216C1155.21 258.657 1157.18 259.082 1159.14 259.491V259.486ZM1154.63 253.639C1155.46 254.766 1156.32 255.852 1157.17 256.95C1155.09 256.503 1153 256.041 1150.9 255.564C1150.01 254.526 1149.13 253.472 1148.27 252.406C1150.4 252.837 1152.52 253.25 1154.63 253.644V253.639ZM1150.32 247.616C1151.16 248.825 1152.02 250.005 1152.87 251.191C1150.66 250.768 1148.44 250.326 1146.2 249.866C1145.31 248.74 1144.44 247.598 1143.56 246.451C1145.83 246.862 1148.08 247.252 1150.32 247.621V247.616ZM1146.22 241.419C1147.05 242.707 1147.9 243.977 1148.75 245.247C1146.42 244.853 1144.08 244.439 1141.72 244.004C1140.83 242.8 1139.96 241.569 1139.09 240.338C1141.49 240.723 1143.87 241.085 1146.22 241.424V241.419ZM1142.36 235.052C1143.17 236.424 1144 237.768 1144.83 239.113C1142.39 238.753 1139.93 238.371 1137.45 237.967C1136.57 236.68 1135.72 235.374 1134.88 234.066C1137.39 234.422 1139.88 234.752 1142.35 235.057L1142.36 235.052ZM1138.38 228.468C1139.26 229.874 1140.13 231.328 1140.99 232.781C1138.48 232.459 1135.95 232.117 1133.38 231.754C1132.53 230.401 1131.7 229.018 1130.88 227.626C1133.41 227.932 1135.91 228.214 1138.37 228.473L1138.38 228.468ZM1133.91 221.642C1134.93 223.129 1135.93 224.669 1136.92 226.213C1134.48 225.951 1132.01 225.667 1129.5 225.361C1128.63 223.869 1127.74 222.424 1126.85 220.982C1129.24 221.225 1131.59 221.447 1133.9 221.647L1133.91 221.642ZM1128.82 214.6C1130 216.168 1131.17 217.77 1132.32 219.406C1130.07 219.203 1127.79 218.984 1125.47 218.748C1124.47 217.172 1123.46 215.628 1122.44 214.116C1124.6 214.296 1126.72 214.459 1128.81 214.605L1128.82 214.6ZM1123.04 207.386C1124.41 209.018 1125.77 210.671 1127.1 212.39C1125.08 212.242 1123.02 212.081 1120.92 211.908C1119.79 210.266 1118.65 208.629 1117.48 207.058C1119.36 207.177 1121.22 207.287 1123.04 207.386ZM1091.53 179.247C1102.08 186.088 1111.98 194.652 1121.18 205.16C1119.4 205.053 1117.6 204.938 1115.77 204.816C1108.19 194.895 1100.1 186.408 1091.53 179.247H1091.53ZM1066.63 166.672C1067.3 166.927 1067.97 167.194 1068.63 167.458C1081.47 176.728 1093.29 188.755 1103.98 203.886C1101.73 203.683 1099.45 203.462 1097.14 203.224C1087.85 188.571 1077.65 176.481 1066.63 166.672H1066.63ZM1057.49 163.595C1058.64 163.938 1059.78 164.287 1060.92 164.659C1073.11 174.628 1084.31 187.272 1094.42 202.931C1091.98 202.667 1089.5 202.382 1087 202.077C1078.05 186.78 1068.18 174.045 1057.49 163.595ZM1048.6 161.242C1050.08 161.577 1051.54 161.944 1053 162.325C1064.4 172.827 1074.87 185.864 1084.33 201.743C1081.82 201.422 1079.28 201.079 1076.72 200.715C1075.51 198.793 1074.32 196.852 1073.17 194.871C1065.62 181.885 1057.42 170.731 1048.6 161.248V161.242ZM1039.77 159.523C1041.49 159.816 1043.21 160.125 1044.91 160.468C1054.44 170.295 1063.27 182.046 1071.34 195.923C1072.2 197.414 1073.11 198.859 1074 200.316C1071.56 199.955 1069.1 199.573 1066.62 199.168C1063.97 195.276 1061.42 191.269 1059.01 187.115C1053.01 176.793 1046.58 167.619 1039.77 159.529V159.523ZM1030.83 158.284C1032.74 158.486 1034.64 158.723 1036.52 158.995C1043.87 167.445 1050.76 177.136 1057.18 188.17C1059.28 191.787 1061.5 195.275 1063.77 198.693C1061.44 198.299 1059.09 197.884 1056.73 197.449C1052.45 191.639 1048.48 185.601 1044.85 179.362C1040.62 172.05 1035.94 165.01 1030.83 158.284ZM1021.77 157.55C1023.84 157.668 1025.89 157.819 1027.93 158.003C1033.47 165.119 1038.51 172.609 1043.02 180.417C1046.36 186.167 1049.95 191.633 1053.73 196.883C1051.52 196.459 1049.29 196.017 1047.06 195.558C1041.03 187.982 1035.56 179.978 1030.69 171.609C1027.82 166.664 1024.84 161.98 1021.77 157.556V157.55ZM1012.54 157.26C1014.74 157.277 1016.93 157.331 1019.1 157.421C1022.46 162.188 1025.72 167.27 1028.86 172.666C1033.36 180.398 1038.38 187.822 1043.87 194.889C1041.78 194.443 1039.69 193.981 1037.6 193.501C1029.69 184.278 1022.64 174.356 1016.53 163.857C1015.22 161.609 1013.89 159.412 1012.55 157.266L1012.54 157.26ZM1003.14 157.421C1005.45 157.326 1007.75 157.273 1010.03 157.26C1011.61 159.735 1013.17 162.287 1014.7 164.916C1020.4 174.71 1026.92 184.006 1034.18 192.708C1032.24 192.247 1030.29 191.772 1028.34 191.282C1018.78 180.91 1010.33 169.561 1003.14 157.422V157.421ZM994.163 157.962C996.369 157.793 998.568 157.64 1000.76 157.537C1007.61 169.243 1015.62 180.232 1024.66 190.34C1022.87 189.875 1021.08 189.396 1019.3 188.903C1009.93 179.438 1001.51 169.074 994.163 157.962ZM985.96 158.742C987.903 158.518 989.836 158.319 991.758 158.145C998.667 168.723 1006.54 178.64 1015.27 187.768C1013.66 187.308 1012.06 186.836 1010.45 186.353C1001.48 177.899 993.281 168.658 985.955 158.741L985.96 158.742ZM978.575 159.676C980.241 159.439 981.896 159.228 983.548 159.032C990.306 168.29 997.818 176.973 1006.01 184.992C1004.61 184.554 1003.22 184.106 1001.82 183.649C993.446 176.286 985.673 168.269 978.57 159.674L978.575 159.676ZM972.056 160.678C973.423 160.452 974.79 160.245 976.143 160.035C982.504 167.826 989.412 175.152 996.815 181.959C995.666 181.565 994.518 181.165 993.371 180.76C985.819 174.556 978.696 167.846 972.051 160.677L972.056 160.678ZM966.457 161.663C967.5 161.474 968.548 161.284 969.582 161.102C975.246 167.304 981.268 173.169 987.617 178.666C986.785 178.356 985.954 178.048 985.124 177.73C978.609 172.722 972.376 167.359 966.453 161.663H966.457ZM961.829 162.55C962.523 162.41 963.223 162.262 963.92 162.13C968.579 166.678 973.404 170.99 978.395 175.067C977.975 174.897 977.555 174.731 977.135 174.557C971.888 170.781 966.784 166.779 961.824 162.549L961.829 162.55ZM958.215 163.281L959.236 163.075C962.147 165.6 965.113 168.043 968.133 170.405C964.772 168.118 961.464 165.741 958.21 163.273L958.215 163.281ZM59.3217 264.434L59.4825 264.563L58.1122 264.014L58.0398 263.959L59.3217 264.434ZM53.522 259.683L54.2168 260.265L52.0794 259.449L51.4087 258.934L53.522 259.683ZM47.8688 254.854L49.0123 255.842L46.1784 254.809L45.0526 253.904L47.8688 254.854ZM42.3699 249.924L43.8367 251.26C42.6883 250.864 41.5421 250.466 40.3981 250.064L38.9184 248.817C40.0603 249.186 41.2081 249.553 42.3618 249.919L42.3699 249.924ZM36.9981 244.875C37.569 245.426 38.1416 245.976 38.7222 246.526C37.3958 246.097 36.0717 245.661 34.7496 245.216C34.1556 244.697 33.5659 244.176 32.9804 243.654C34.3175 244.07 35.6567 244.477 36.9981 244.875ZM31.7999 239.741C32.4358 240.385 33.0791 241.028 33.7299 241.672C32.8453 241.4 31.9608 241.13 31.0794 240.853L29.2588 240.278C28.5929 239.667 27.9367 239.05 27.2805 238.437C28.7827 238.882 30.2892 239.319 31.7999 239.747V239.741ZM26.761 234.494C27.4462 235.229 28.1394 235.963 28.8406 236.697C27.1969 236.22 25.5542 235.737 23.9127 235.249C23.1889 234.55 22.4727 233.849 21.7639 233.147C23.427 233.606 25.0926 234.057 26.761 234.5V234.494ZM21.899 229.136C22.6196 229.955 23.3498 230.774 24.0896 231.59C22.3 231.102 20.5143 230.607 18.7322 230.105C17.9645 229.323 17.2054 228.54 16.4548 227.755C18.2658 228.229 20.0806 228.691 21.899 229.142V229.136ZM17.2188 223.655C17.9618 224.557 18.7172 225.456 19.4849 226.353C17.5549 225.864 15.633 225.365 13.7191 224.856C12.9181 223.998 12.1284 223.135 11.35 222.27C13.3025 222.747 15.2588 223.211 17.2188 223.662V223.655ZM12.7396 218.053C13.4901 219.029 14.2579 220.005 15.0427 220.982C12.9851 220.496 10.9313 220 8.88121 219.493C8.06096 218.556 7.2525 217.618 6.45584 216.678C8.5456 217.152 10.6402 217.613 12.7396 218.059V218.053ZM8.4743 212.316C9.22485 213.371 9.99417 214.424 10.7823 215.476C8.596 215 6.41188 214.512 4.22991 214.01C3.40001 212.999 2.58405 211.986 1.78203 210.972C4.01011 211.439 6.24086 211.889 8.4743 212.323V212.316ZM13.9426 216.153C13.1117 215.069 12.2968 213.982 11.498 212.894C83.934 226.575 159.006 225.931 224.602 203.34C293.212 179.701 364.078 143.911 433.159 109.023C570.272 39.7753 700.324 -25.8798 790.767 14.6396C700.576 -13.4866 576.635 49.0977 446.355 114.896C377.31 149.766 306.477 185.541 238.076 209.109C169.188 232.844 89.7417 232.216 13.9426 216.16V216.153ZM18.3913 221.764C17.5635 220.754 16.747 219.744 15.9418 218.732C91.35 234.357 170.227 234.709 238.755 211.1C307.365 187.461 378.231 151.67 447.312 116.782C584.429 47.5316 714.483 -18.1267 804.925 22.3991C714.734 -5.72544 590.79 56.8554 460.509 122.654C391.463 157.524 320.63 193.297 252.23 216.866C180.395 241.613 97.0837 239.874 18.3913 221.771V221.764ZM23.041 227.246C22.2229 226.316 21.4144 225.379 20.6156 224.434C98.8625 242.038 181.508 243.452 252.917 218.849C321.525 195.21 392.391 159.42 461.472 124.532C595.887 56.6462 723.517 -7.79048 813.697 27.8762C814.218 28.2529 814.738 28.6332 815.257 29.0174C725.404 3.78348 603.118 65.5307 474.668 130.404C405.623 165.274 334.792 201.047 266.39 224.616C191.654 250.365 104.493 247.45 23.041 227.253V227.246ZM27.8788 232.609C27.0779 231.751 26.2882 230.889 25.5097 230.023C106.463 249.639 192.844 252.174 267.081 226.599C335.689 202.96 406.556 167.17 475.637 132.282C606.281 66.3065 730.51 3.57748 820.178 32.8561C821.069 33.5836 821.955 34.325 822.835 35.0804C733.64 14.5205 614.162 74.8578 488.83 138.165C419.782 173.035 348.952 208.809 280.551 232.377C202.962 259.102 111.964 254.938 27.8788 232.615V232.609ZM32.892 237.859C32.1253 237.077 31.3662 236.293 30.6146 235.508C114.148 257.169 204.229 260.885 281.236 234.352C349.844 210.713 420.71 174.923 489.792 140.035C616.639 75.9764 737.45 14.9647 826.439 38.2753C827.526 39.2753 828.604 40.2947 829.674 41.3333C741.317 25.5424 624.933 84.3073 502.989 145.9C433.942 180.77 363.111 216.543 294.711 240.113C214.3 267.828 119.486 262.351 32.892 237.866V237.859ZM38.0724 242.998C37.3487 242.298 36.6324 241.597 35.9237 240.895C121.91 264.622 215.661 269.576 295.396 242.105C364.004 218.466 434.872 182.676 503.951 147.788C626.989 85.6464 744.345 26.3988 832.493 44.1677C833.673 45.3867 834.844 46.6345 836.009 47.9114C748.664 36.7543 635.524 93.8742 517.149 153.656C448.102 188.526 377.271 224.301 308.87 247.869C225.671 276.542 127.052 269.687 38.0724 243.005V242.998ZM43.4105 248.033C42.7446 247.421 42.09 246.805 41.4322 246.192C129.746 272.007 227.138 278.253 309.556 249.858C378.164 226.219 449.032 190.429 518.111 155.541C637.288 95.3453 751.132 37.8568 838.267 50.4512C839.502 51.8697 840.724 53.3231 841.932 54.8114C755.769 48.0627 645.996 103.491 531.309 161.412C462.262 196.282 391.431 232.057 323.03 255.625C237.652 285.048 136.013 277.065 45.2311 248.614L43.4105 248.033ZM48.9094 252.969L47.1402 251.407C137.654 279.325 238.659 286.915 323.712 257.611C392.322 233.972 463.188 198.182 532.269 163.294C647.572 105.06 757.883 49.3648 843.845 57.2128C845.086 58.7998 846.314 60.4253 847.528 62.0896C762.717 59.4596 656.389 113.153 545.469 169.172C476.423 204.042 405.591 239.816 337.19 263.384C251.805 292.801 150.173 284.812 59.3909 256.367C55.8815 255.268 52.3876 254.138 48.9094 252.976V252.969ZM54.553 257.808L53.0701 256.559C54.9615 257.171 56.8583 257.776 58.7604 258.372C149.921 286.936 252.024 294.944 337.877 265.364C406.485 241.725 477.351 205.935 546.432 171.047C657.823 114.795 764.556 60.9082 849.176 64.388C850.42 66.1456 851.647 67.9461 852.856 69.7895C769.545 70.9162 666.732 122.832 559.628 176.925C490.583 211.795 419.75 247.569 351.35 271.137C265.958 300.554 164.333 292.565 73.5522 264.12C67.1596 262.118 60.8265 260.016 54.553 257.814V257.808ZM60.3317 262.551L59.2059 261.645C63.7478 263.189 68.3203 264.682 72.9233 266.125C164.084 294.689 266.188 302.697 352.04 273.117C420.648 249.478 491.514 213.688 560.595 178.8C668.044 124.532 771.163 72.4597 854.276 71.972C855.498 73.882 856.702 75.8385 857.89 77.8419C776.258 82.4273 677.013 132.546 573.793 184.679C504.747 219.549 433.915 255.324 365.514 278.892C280.129 308.309 178.499 300.319 87.7184 271.875C78.4651 268.976 69.3362 265.871 60.3317 262.557V262.551ZM66.2407 267.202L65.5701 266.689C72.6607 269.211 79.8306 271.608 87.0799 273.879C178.24 302.442 280.345 310.45 366.196 280.87C434.804 257.231 505.671 221.441 574.752 186.553C678.238 134.286 777.704 84.0691 859.153 80.0034C860.4 82.1366 861.677 84.2343 862.985 86.2966C783.122 93.871 687.383 142.213 587.946 192.431C518.901 227.301 448.07 263.075 379.667 286.643C294.283 316.06 192.652 308.071 101.872 279.626C89.7803 275.837 77.9033 271.698 66.2407 267.209V267.202ZM72.2736 271.762L72.1964 271.706C81.7284 275.24 91.4095 278.549 101.24 281.632C192.401 310.195 294.505 318.203 380.356 288.623C448.964 264.984 519.832 229.194 588.911 194.306C688.615 143.949 784.594 95.4821 864.317 88.36C865.78 90.6069 867.281 92.8124 868.82 94.9767C790.67 104.964 698.115 151.693 602.114 200.177C533.067 235.047 462.236 270.822 393.835 294.39C308.452 323.807 206.82 315.817 116.039 287.373C101.105 282.699 86.4848 277.472 72.2736 271.768V271.762ZM953.317 162.132L953.251 162.146C950.142 160.014 947.078 157.806 944.058 155.52L945.073 155.314C947.773 157.662 950.521 159.939 953.316 162.146L953.317 162.132ZM957.187 161.271C956.78 161.358 956.368 161.453 955.958 161.544C953.15 159.362 950.388 157.109 947.671 154.784C948.372 154.643 949.073 154.493 949.769 154.36C952.196 156.734 954.668 159.04 957.185 161.277L957.187 161.271ZM962.052 160.284L959.749 160.744C957.221 158.529 954.738 156.247 952.299 153.901C953.34 153.713 954.39 153.521 955.419 153.341C957.584 155.72 959.793 158.036 962.044 160.291L962.052 160.284ZM967.862 159.19C966.753 159.388 965.652 159.574 964.537 159.785C962.279 157.554 960.064 155.265 957.892 152.917C959.259 152.692 960.626 152.486 961.977 152.282C963.895 154.642 965.856 156.947 967.86 159.196L967.862 159.19ZM974.56 158.063C973.145 158.283 971.73 158.507 970.305 158.75C968.297 156.522 966.331 154.241 964.407 151.908C966.073 151.672 967.731 151.462 969.385 151.264C971.068 153.583 972.793 155.854 974.559 158.076L974.56 158.063ZM982.094 156.994C980.39 157.212 978.684 157.44 976.969 157.693C975.205 155.501 973.48 153.261 971.795 150.975C973.738 150.753 975.671 150.554 977.594 150.379C979.056 152.635 980.556 154.844 982.092 157.007L982.094 156.994ZM990.425 156.061C988.45 156.249 986.47 156.452 984.474 156.688C982.949 154.564 981.459 152.399 980.003 150.194C982.211 150.033 984.41 149.872 986.597 149.769C987.84 151.911 989.115 154.012 990.423 156.074L990.425 156.061ZM999.489 155.365C997.27 155.491 995.038 155.649 992.792 155.84C991.491 153.814 990.22 151.753 988.981 149.657C991.294 149.562 993.593 149.508 995.875 149.496C997.097 151.416 998.301 153.38 999.488 155.386L999.489 155.365ZM1008.62 155.06C1006.39 155.09 1004.14 155.161 1001.88 155.259C1000.73 153.298 999.562 151.378 998.381 149.5C1000.58 149.518 1002.77 149.571 1004.94 149.661C1006.18 151.428 1007.41 153.231 1008.62 155.073L1008.62 155.06ZM1017.46 155.121C1015.36 155.055 1013.25 155.018 1011.13 155.026C1009.97 153.242 1008.8 151.498 1007.62 149.792C1009.69 149.908 1011.74 150.058 1013.78 150.244C1015.02 151.84 1016.24 153.469 1017.45 155.134L1017.46 155.121ZM1026.03 155.596C1024.08 155.443 1022.12 155.328 1020.16 155.235C1019.01 153.626 1017.85 152.055 1016.68 150.524C1018.59 150.727 1020.49 150.964 1022.36 151.235C1023.59 152.663 1024.81 154.12 1026.02 155.608L1026.03 155.596ZM1034.27 156.449C1032.51 156.224 1030.74 156.025 1028.96 155.852C1027.86 154.457 1026.75 153.094 1025.63 151.763C1027.35 152.055 1029.06 152.365 1030.76 152.708C1031.93 153.936 1033.1 155.187 1034.26 156.462L1034.27 156.449ZM1042.1 157.633C1040.58 157.361 1039.06 157.104 1037.52 156.878C1036.51 155.724 1035.48 154.592 1034.45 153.482C1035.94 153.817 1037.4 154.187 1038.87 154.57C1039.95 155.577 1041.02 156.6 1042.09 157.64L1042.1 157.633ZM1049.42 159.12C1048.25 158.852 1047.06 158.615 1045.88 158.375C1045.04 157.517 1044.2 156.671 1043.35 155.839C1044.49 156.182 1045.63 156.528 1046.76 156.899C1047.65 157.634 1048.53 158.379 1049.41 159.133L1049.42 159.12ZM1056.03 160.822C1055.34 160.63 1054.66 160.442 1053.97 160.258C1053.48 159.805 1052.98 159.354 1052.48 158.908C1053.15 159.161 1053.82 159.428 1054.49 159.692C1054.99 160.077 1055.5 160.455 1056.02 160.835L1056.03 160.822ZM1438.83 343.984L1440 343.49V341.198C1437.17 342.394 1434.99 343.33 1433.48 343.984H1438.83ZM1302.44 343.984C1287.9 339.96 1273.21 335.038 1258.78 328.999C1276.32 335.383 1294.01 340.266 1311.16 343.984H1321.45C1296.54 339.155 1270.17 331.94 1244.63 321.248C1278.74 333.673 1313.51 340.412 1343.67 343.984H1365C1326.8 340.985 1277.23 333.073 1230.47 313.495C1321.34 346.598 1416.93 339.35 1417.36 339.32L1417.55 339.305L1417.71 339.233C1417.84 339.173 1426.02 335.552 1439.99 329.854V327.578C1426.44 333.094 1418.11 336.752 1417.02 337.235C1411.98 337.591 1308.65 344.414 1216.3 305.744C1307.18 338.851 1402.77 331.602 1403.19 331.571L1403.38 331.557L1403.55 331.484C1403.72 331.407 1417.54 325.294 1439.99 316.424V314.155C1418.14 322.769 1404.28 328.851 1402.85 329.482C1397.85 329.836 1295.74 336.564 1203.81 298.681L1203.57 298.509C1294.01 331.021 1388.6 323.849 1389.03 323.817L1389.22 323.804L1389.38 323.731C1389.59 323.64 1409.29 314.919 1439.98 303.16V300.907C1410.08 312.334 1390.41 320.971 1388.69 321.731C1383.83 322.074 1287.38 328.434 1197.62 294.094C1197.25 293.809 1196.88 293.513 1196.51 293.225C1284.73 322.891 1374.44 316.096 1374.86 316.067L1375.05 316.052L1375.21 315.98C1375.45 315.874 1401.31 304.432 1439.97 290.067V287.833C1402.22 301.826 1376.5 313.113 1374.51 313.986C1369.8 314.319 1278.99 320.305 1191.65 289.36C1191.09 288.898 1190.55 288.417 1189.99 287.949C1275.68 314.747 1360.28 308.341 1360.69 308.312L1360.88 308.299L1361.04 308.227C1361.31 308.108 1393.56 293.83 1439.96 277.133V274.907C1394.59 291.195 1362.57 305.246 1360.35 306.225C1355.79 306.547 1270.57 312.164 1185.92 284.475C1185.23 283.867 1184.55 283.236 1183.87 282.618C1266.72 306.6 1346.13 300.587 1346.52 300.561L1346.71 300.546L1346.87 300.474C1347.17 300.344 1386.09 283.117 1439.95 264.37V262.152C1387.2 280.468 1348.63 297.4 1346.18 298.472C1341.77 298.784 1262.1 304.034 1180.38 279.431C1179.6 278.696 1178.84 277.936 1178.07 277.188C1257.82 298.444 1331.97 292.834 1332.35 292.8L1332.54 292.787L1332.7 292.715C1333.03 292.573 1378.88 272.274 1439.95 251.77V249.562C1380.05 269.623 1334.67 289.541 1332.01 290.712C1327.77 291.012 1253.59 295.898 1175.05 274.216C1174.21 273.37 1173.39 272.499 1172.57 271.641C1248.94 290.286 1317.82 285.076 1318.19 285.052L1318.37 285.039L1318.54 284.966C1318.88 284.815 1371.93 261.336 1439.94 239.355V237.159C1373.17 258.678 1320.71 281.702 1317.84 282.964C1313.76 283.252 1245.02 287.777 1169.92 268.85C1169.05 267.902 1168.2 266.932 1167.34 265.964C1240.07 282.126 1303.67 277.324 1304.02 277.299L1304.21 277.286L1304.37 277.213C1304.74 277.052 1365.27 250.261 1439.93 227.117V224.938C1366.56 247.613 1306.74 273.867 1303.68 275.211C1299.76 275.488 1236.41 279.65 1165 263.312C1164.12 262.274 1163.24 261.22 1162.37 260.154C1231.18 273.973 1289.52 269.57 1289.85 269.546L1290.04 269.533L1290.2 269.46C1290.6 269.288 1358.9 239.052 1439.93 215.072V212.91C1360.23 236.42 1292.77 266.024 1289.51 267.458C1285.77 267.722 1227.75 271.533 1160.3 257.614C1159.41 256.488 1158.53 255.347 1157.66 254.199C1222.28 265.821 1275.37 261.814 1275.69 261.793L1275.88 261.78L1276.04 261.707C1276.45 261.525 1352.86 227.705 1439.93 203.234V201.096C1354.21 225.104 1278.81 258.194 1275.35 259.715C1271.79 259.966 1219.06 263.43 1155.81 251.759C1154.92 250.555 1154.06 249.327 1153.19 248.097C1213.34 257.682 1261.22 254.07 1261.53 254.053L1261.72 254.04L1261.88 253.966C1262.31 253.774 1347.15 216.226 1439.92 191.628V189.494C1348.59 213.635 1264.89 250.357 1261.26 251.957C1257.88 252.195 1210.37 255.314 1151.6 245.72C1150.72 244.432 1149.87 243.129 1149.03 241.819C1204.43 249.53 1247.15 246.311 1247.44 246.291L1247.62 246.279L1247.79 246.206C1248.24 246.003 1341.87 204.563 1439.98 180.236V178.111C1343.24 202.003 1250.92 242.517 1247.09 244.204C1243.91 244.429 1201.56 247.209 1147.52 239.507C1146.67 238.155 1145.84 236.771 1145.02 235.377C1195.4 241.389 1232.99 238.558 1233.26 238.538L1233.45 238.526L1233.61 238.452C1234.09 238.241 1336.91 192.732 1439.97 169.103V166.991C1338.28 190.208 1236.94 234.687 1232.92 236.456C1229.95 236.665 1192.67 239.111 1143.63 233.118C1142.76 231.627 1141.87 230.182 1140.99 228.741C1186.19 233.266 1218.84 230.808 1219.09 230.79L1219.28 230.777L1219.44 230.703C1219.95 230.483 1332.38 180.715 1439.96 158.247V156.146C1333.73 178.232 1222.95 226.852 1218.75 228.703C1215.99 228.898 1183.56 231.027 1139.6 226.504C1138.6 224.928 1137.59 223.39 1136.57 221.874C1176.64 225.163 1204.69 223.055 1204.92 223.037L1205.11 223.024L1205.27 222.95C1205.8 222.72 1328.32 168.48 1439.95 147.688V145.612C1329.65 166.053 1208.97 219.015 1204.58 220.95C1202.02 221.128 1174.05 222.966 1135.05 219.654C1133.91 218.008 1132.76 216.372 1131.6 214.798C1166.7 217.093 1190.54 215.3 1190.76 215.281L1190.95 215.268L1191.11 215.194C1191.65 214.954 1324.79 156.025 1439.95 137.477V135.411C1326.07 153.659 1195 211.177 1190.41 213.194C1188.06 213.355 1164.14 214.93 1129.9 212.59C1128.58 210.869 1127.25 209.179 1125.9 207.536C1156.32 209.054 1176.39 207.536 1176.59 207.528L1176.78 207.515L1176.94 207.441C1177.51 207.192 1321.84 143.309 1439.94 127.646V125.586C1323.11 141.01 1181.07 203.35 1176.3 205.442C1174.13 205.595 1153.85 206.921 1124.09 205.329C1109.95 188.706 1094.15 176.68 1076.9 168.581C1072.35 165.711 1067.62 163.124 1062.75 160.836C1058.2 157.965 1053.47 155.377 1048.6 153.09C1044.05 150.218 1039.32 147.629 1034.45 145.338C1029.89 142.467 1025.17 139.88 1020.29 137.59C1015.74 134.719 1011.01 132.13 1006.14 129.839C1001.58 126.964 996.853 124.374 991.977 122.082C987.422 119.211 982.696 116.623 977.823 114.333C973.269 111.46 968.542 108.87 963.67 106.578C959.112 103.705 954.381 101.116 949.506 98.8234C944.951 95.9521 940.224 93.3635 935.352 91.072C930.797 88.2006 926.071 85.6115 921.199 83.3191C916.641 80.4457 911.911 77.8559 907.034 75.5644C902.48 72.6928 897.753 70.1041 892.881 67.813C888.327 64.9409 883.6 62.3517 878.728 60.06C874.17 57.1869 869.439 54.5971 864.563 52.3053C860.008 49.4341 855.282 46.8455 850.41 44.554C845.85 41.6799 841.117 39.089 836.239 36.7961C831.669 33.9214 826.927 31.3311 822.039 29.0399C817.44 26.1427 812.667 23.5335 807.746 21.2274C716.251 -36.2836 578.201 33.4065 432.189 107.151C363.143 142.021 292.311 177.794 223.91 201.364C158.033 224.058 82.4881 224.473 9.71271 210.417C6.82737 206.34 4.17952 202.253 1.76916 198.158C1.24646 197.264 0.652982 196.21 0 195.006V199.312C2.06188 202.827 4.3055 206.334 6.73087 209.834C4.4792 209.388 2.23558 208.928 0 208.454V212.115L0.892624 213.242L0 213.029V215.199L3.0687 215.917C3.81389 216.817 4.56927 217.716 5.33483 218.613C3.55495 218.16 1.77667 217.699 0 217.23V220.647L0.53075 221.204L0 221.043V223.24C1.16122 223.578 2.32404 223.912 3.48847 224.241C4.1318 224.885 4.76388 225.529 5.41847 226.173C4.53389 225.901 3.6493 225.63 2.76794 225.353L0.947307 224.78L0.0064347 223.906V226.758L1.36547 227.995L0.0064347 227.526V239.202C1.2931 239.895 2.58673 240.585 3.88734 241.271C8.52255 243.903 13.2403 246.486 18.0407 249.018C22.6737 251.651 27.3915 254.233 32.194 256.765C36.8388 259.403 41.5657 261.992 46.3746 264.53C51.0098 267.164 55.7276 269.746 60.5279 272.279C65.1664 274.912 69.8868 277.496 74.6893 280.032C79.3352 282.671 84.0648 285.261 88.878 287.801C93.5046 290.429 98.2133 293.006 103.004 295.534C107.635 298.173 112.354 300.762 117.162 303.3C144.451 318.798 174.654 332.624 206.532 343.995H212.9C203.34 340.692 193.933 337.174 184.68 333.438C194.468 337.087 204.415 340.494 214.519 343.66L215.606 343.995H222.833C220.266 343.229 217.705 342.446 215.151 341.647C199.92 336.876 185 331.523 170.509 325.68C180.303 329.329 190.253 332.737 200.359 335.906C209.673 338.823 219.092 341.52 228.616 343.995H237.239C225.015 341.005 212.933 337.638 200.992 333.894C185.767 329.125 170.853 323.775 156.37 317.937C166.155 321.58 176.098 324.985 186.2 328.153C206.654 334.572 227.445 339.861 248.479 343.995H260.027C235.266 339.641 210.815 333.678 186.829 326.144C171.596 321.372 156.674 316.02 142.183 310.176C151.977 313.824 161.928 317.233 172.037 320.403C209.435 332.122 248.677 340.375 287.88 343.998H373.591C400.359 341.309 426.43 335.912 451.153 327.396C519.761 303.756 590.627 267.967 659.708 233.079C746.196 189.397 829.87 147.144 902.579 132.065C905.28 134.407 908.028 136.68 910.824 138.882C839.16 154.999 757.366 196.294 672.905 238.951C603.859 273.822 533.027 309.595 464.626 333.163C451.612 337.625 438.325 341.244 424.847 344H434.595C444.977 341.566 455.229 338.611 465.314 335.148C533.923 311.507 604.789 275.718 673.87 240.83C758.896 197.889 841.204 156.331 913.04 140.605C916.027 142.904 919.06 145.126 922.138 147.27C851.159 163.827 770.41 204.61 687.066 246.702C618.021 281.574 547.188 317.347 478.787 340.915C475.653 341.994 472.496 343.022 469.316 343.998H476.217C477.307 343.638 478.393 343.272 479.476 342.902C548.084 319.262 618.95 283.473 688.031 248.585C772.023 206.165 853.368 165.097 924.575 148.948C927.877 151.192 931.224 153.354 934.616 155.435C864.044 172.238 783.915 212.696 701.228 254.456C636.598 287.097 570.404 320.527 506.102 344H512.175C574.961 320.595 639.316 288.094 702.191 256.338C785.599 214.212 866.402 173.411 937.255 157.031C940.901 159.211 944.588 161.3 948.317 163.299C877.858 180.173 797.895 220.539 715.389 262.208C657.587 291.403 598.518 321.23 540.679 343.998H546.39C602.775 321.451 660.152 292.471 716.351 264.089C799.68 222.004 880.4 181.238 951.212 164.828C951.913 165.193 952.616 165.559 953.319 165.917C957.999 168.663 962.745 171.263 967.557 173.715C972.205 176.441 976.916 179.02 981.693 181.454C986.348 184.184 991.065 186.768 995.846 189.207C1000.5 191.939 1005.23 194.525 1010.02 196.966C1014.66 199.687 1019.36 202.262 1024.14 204.692C1028.8 207.428 1033.53 210.02 1038.33 212.466C1042.98 215.194 1047.7 217.777 1052.48 220.216C1057.14 222.946 1061.86 225.53 1066.65 227.97C1071.3 230.698 1076.02 233.28 1080.8 235.717C1085.46 238.449 1090.18 241.034 1094.97 243.473C1099.63 246.207 1104.36 248.797 1109.15 251.242C1113.8 253.963 1118.51 256.541 1123.28 258.976C1127.95 261.714 1132.68 264.305 1137.47 266.748C1142.12 269.475 1146.84 272.057 1151.63 274.495C1156.28 277.225 1161.01 279.81 1165.79 282.251C1170.44 284.972 1175.14 287.55 1179.92 289.985C1184.58 292.717 1189.3 295.302 1194.08 297.741C1198.74 300.472 1203.46 303.058 1208.25 305.499C1212.9 308.225 1217.62 310.807 1222.41 313.244C1245.51 326.791 1270.33 336.722 1294.93 343.995L1302.44 343.984Z" fill="url(#paint0_linear_253_959)"/>
    <defs>
        <linearGradient id="paint0_linear_253_959" x1="385.588" y1="110.249" x2="1439.99" y2="326.103" gradientUnits="userSpaceOnUse">
            <stop stop-color="#292040" stop-opacity="0.41"/>
            <stop offset="0.494792" stop-color="#62417D" stop-opacity="0.64"/>
            <stop offset="1" stop-color="#292040" stop-opacity="0"/>
        </linearGradient>
    </defs>
</svg>