<svg xmlns="http://www.w3.org/2000/svg" width="48" height="48" viewBox="0 0 48 48" fill="none">
    <path d="M41.25 24C41.25 24.1989 41.171 24.3897 41.0303 24.5303C40.8897 24.671 40.6989 24.75 40.5 24.75H24.75V40.5C24.75 40.6989 24.671 40.8897 24.5303 41.0303C24.3897 41.171 24.1989 41.25 24 41.25C23.8011 41.25 23.6103 41.171 23.4697 41.0303C23.329 40.8897 23.25 40.6989 23.25 40.5V24.75H7.5C7.30109 24.75 7.11032 24.671 6.96967 24.5303C6.82902 24.3897 6.75 24.1989 6.75 24C6.75 23.8011 6.82902 23.6103 6.96967 23.4697C7.11032 23.329 7.30109 23.25 7.5 23.25H23.25V7.5C23.25 7.30109 23.329 7.11032 23.4697 6.96967C23.6103 6.82902 23.8011 6.75 24 6.75C24.1989 6.75 24.3897 6.82902 24.5303 6.96967C24.671 7.11032 24.75 7.30109 24.75 7.5V23.25H40.5C40.6989 23.25 40.8897 23.329 41.0303 23.4697C41.171 23.6103 41.25 23.8011 41.25 24Z" fill="#DEE1E6"/>
</svg>